<?xml version="1.0" encoding="utf-8"?>
<!-- Generator: Adobe Illustrator 26.0.1, SVG Export Plug-In . SVG Version: 6.00 Build 0)  -->
<svg version="1.0" id="Layer_1" xmlns="http://www.w3.org/2000/svg" xmlns:xlink="http://www.w3.org/1999/xlink" x="0px" y="0px"
	 viewBox="0 0 364 106" style="enable-background:new 0 0 364 106;" xml:space="preserve">
<style type="text/css">
	.st0{opacity:0.61;}
	.st1{fill:#FFFFFF;}
	.st2{fill:#231F20;}
	.st3{fill-rule:evenodd;clip-rule:evenodd;fill:#EC1C24;stroke:#EC1C24;stroke-width:0.216;stroke-miterlimit:2.6131;}
	.st4{font-family:'MicrosoftSansSerif';}
	.st5{font-size:27.8596px;}
</style>
<g id="watermark_1_">
	<g>
		<g id="watermark" class="st0">
			<g>
				<g>
					<g>
						<g>
							<polygon class="st1" points="147.76,181.17 142.2,194.02 139.27,194.02 133.73,181.17 136.94,181.17 140.85,190.35 
								144.81,181.17 							"/>
						</g>
						<g>
							<path class="st1" d="M157.51,189.74h-7.47c0.28,1.23,1.32,1.98,2.83,1.98c1.05,0,1.8-0.31,2.48-0.95l1.52,1.65
								c-0.92,1.05-2.29,1.6-4.07,1.6c-3.41,0-5.63-2.15-5.63-5.08c0-2.95,2.26-5.08,5.27-5.08c2.9,0,5.14,1.95,5.14,5.12
								C157.56,189.19,157.53,189.5,157.51,189.74 M150,188.07h4.86c-0.2-1.25-1.14-2.06-2.42-2.06
								C151.14,186.02,150.2,186.81,150,188.07"/>
						</g>
						<g>
							<path class="st1" d="M158.74,188.93c0-2.97,2.29-5.08,5.51-5.08c2.07,0,3.71,0.9,4.42,2.51l-2.22,1.19
								c-0.53-0.94-1.32-1.36-2.22-1.36c-1.45,0-2.59,1.01-2.59,2.73c0,1.73,1.14,2.73,2.59,2.73c0.9,0,1.69-0.4,2.22-1.36
								l2.22,1.21c-0.72,1.58-2.35,2.5-4.42,2.5C161.03,194.02,158.74,191.91,158.74,188.93"/>
						</g>
						<g>
							<path class="st1" d="M176.83,193.39c-0.59,0.42-1.45,0.62-2.33,0.62c-2.33,0-3.69-1.19-3.69-3.54v-4.06h-1.52v-2.2h1.52v-2.4
								h2.86v2.4h2.46v2.2h-2.46v4.02c0,0.84,0.46,1.3,1.23,1.3c0.42,0,0.84-0.13,1.16-0.37L176.83,193.39z"/>
						</g>
					</g>
					<g>
						<path class="st1" d="M196.47,184v2.64c-0.24-0.02-0.42-0.04-0.64-0.04c-1.58,0-2.62,0.86-2.62,2.75v4.66h-2.86v-9.87h2.73v1.3
							C193.78,184.49,194.95,184,196.47,184"/>
					</g>
					<g>
						<path class="st1" d="M197.3,192.53l1.01-2.24c1.08,0.79,2.7,1.34,4.24,1.34c1.76,0,2.48-0.59,2.48-1.38
							c0-2.4-7.47-0.75-7.47-5.52c0-2.18,1.76-4,5.41-4c1.61,0,3.27,0.39,4.46,1.14l-0.92,2.26c-1.19-0.68-2.42-1.01-3.56-1.01
							c-1.76,0-2.44,0.66-2.44,1.47c0,2.37,7.47,0.73,7.47,5.45c0,2.15-1.78,3.98-5.45,3.98
							C200.49,194.02,198.44,193.41,197.3,192.53"/>
					</g>
					<g>
						<path class="st1" d="M219.43,189.74h-7.47c0.28,1.23,1.32,1.98,2.83,1.98c1.05,0,1.8-0.31,2.48-0.95l1.52,1.65
							c-0.92,1.05-2.29,1.6-4.07,1.6c-3.41,0-5.63-2.15-5.63-5.08c0-2.95,2.26-5.08,5.27-5.08c2.9,0,5.14,1.95,5.14,5.12
							C219.48,189.19,219.45,189.5,219.43,189.74 M211.92,188.07h4.86c-0.2-1.25-1.14-2.06-2.42-2.06
							C213.06,186.02,212.13,186.81,211.92,188.07"/>
					</g>
					<g>
						<path class="st1" d="M231.01,189.74h-7.47c0.28,1.23,1.32,1.98,2.83,1.98c1.05,0,1.8-0.31,2.48-0.95l1.52,1.65
							c-0.92,1.05-2.29,1.6-4.07,1.6c-3.41,0-5.63-2.15-5.63-5.08c0-2.95,2.26-5.08,5.27-5.08c2.9,0,5.14,1.95,5.14,5.12
							C231.06,189.19,231.02,189.5,231.01,189.74 M223.5,188.07h4.86c-0.2-1.25-1.14-2.06-2.42-2.06
							C224.64,186.02,223.7,186.81,223.5,188.07"/>
					</g>
					<g>
						<polygon class="st1" points="237.21,190.14 235.83,191.5 235.83,194.02 232.97,194.02 232.97,180.4 235.83,180.4 
							235.83,188.11 240.02,184.14 243.43,184.14 239.32,188.33 243.8,194.02 240.33,194.02 						"/>
					</g>
					<g>
						<path class="st1" d="M190.6,195.36L190.6,195.36l-2.86-2.86c-0.44,0.51-0.95,0.94-1.53,1.28c-0.09,0.07-0.19,0.14-0.28,0.2
							l3.03,3.03c0.46,0.46,1.19,0.46,1.65,0C191.06,196.55,191.06,195.81,190.6,195.36"/>
					</g>
					<g>
						<path class="st1" d="M183.98,183.24c0.22-0.17,0.49-0.28,0.8-0.28c0.04,0,0.08,0,0.12,0.01c-0.21-0.16-0.48-0.25-0.76-0.25
							c-0.39,0-0.74,0.18-0.98,0.46c-0.05,0-0.1,0.01-0.15,0.01c0.04-0.08,0.06-0.16,0.06-0.25c0-0.23-0.14-0.43-0.35-0.52
							c0.09,0.13,0.14,0.28,0.14,0.44c0,0.12-0.03,0.24-0.08,0.34c-2.81,0.2-5.03,2.54-5.03,5.4c0,2.99,2.43,5.42,5.42,5.42
							c2.99,0,5.42-2.43,5.42-5.42C188.6,185.88,186.59,183.64,183.98,183.24 M181.98,184.66c0.43,0,0.84,0.11,1.2,0.31
							c0.37-0.24,0.82-0.39,1.3-0.39c0.71,0,1.35,0.31,1.78,0.81c-0.44-0.38-1-0.61-1.63-0.61c-0.45,0-0.87,0.12-1.23,0.33
							c-0.08,0.05-0.16,0.1-0.23,0.15c-0.07-0.05-0.13-0.09-0.2-0.13c-0.37-0.22-0.8-0.34-1.26-0.34c-0.3,0-0.59,0.05-0.85,0.15
							C181.2,184.75,181.58,184.66,181.98,184.66 M185.77,189.1c0.12,0.3,0.18,0.63,0.18,0.98c0,1.53-1.24,2.78-2.78,2.78
							c-1.53,0-2.78-1.24-2.78-2.78c0-0.35,0.07-0.67,0.18-0.98c-0.62-0.38-1.03-1.06-1.03-1.85c0-1.2,0.97-2.17,2.17-2.17
							c0.56,0,1.08,0.22,1.46,0.57c0.39-0.35,0.9-0.57,1.46-0.57c1.2,0,2.17,0.97,2.17,2.17
							C186.81,188.03,186.39,188.72,185.77,189.1"/>
					</g>
					<g>
						<path class="st1" d="M185.67,187.06c0,0.5-0.4,0.9-0.9,0.9c-0.5,0-0.9-0.4-0.9-0.9c0-0.5,0.4-0.9,0.9-0.9
							c0.1,0,0.2,0.02,0.29,0.05c-0.03,0.06-0.05,0.13-0.05,0.2c0,0.27,0.22,0.49,0.49,0.49c0.05,0,0.1-0.01,0.15-0.02
							C185.66,186.94,185.67,187,185.67,187.06"/>
					</g>
					<g>
						<path class="st1" d="M182.26,187.06c0,0.38-0.31,0.68-0.68,0.68c-0.38,0-0.68-0.31-0.68-0.68c0-0.38,0.31-0.68,0.68-0.68
							c0.08,0,0.15,0.01,0.22,0.04c-0.02,0.05-0.03,0.1-0.03,0.15c0,0.21,0.17,0.37,0.37,0.37c0.04,0,0.08-0.01,0.11-0.02
							C182.25,186.97,182.26,187.02,182.26,187.06"/>
					</g>
					<g>
						<g>
							<g>
								<rect x="176.91" y="187.83" class="st1" width="0.62" height="0.62"/>
							</g>
							<g>
								<rect x="188.83" y="187.83" class="st1" width="0.62" height="0.62"/>
							</g>
							<g>
								<path class="st1" d="M189.21,188.08h-0.14c0-3.25-2.64-5.89-5.89-5.89c-3.25,0-5.89,2.64-5.89,5.89h-0.14
									c0-1.61,0.63-3.12,1.77-4.26c1.14-1.14,2.65-1.77,4.26-1.77c1.61,0,3.12,0.63,4.26,1.77
									C188.58,184.96,189.21,186.47,189.21,188.08"/>
							</g>
						</g>
						<g>
							<rect x="182.87" y="181.81" class="st1" width="0.62" height="0.62"/>
						</g>
						<g>
							<rect x="178.95" y="182.05" class="st1" width="8.45" height="0.14"/>
						</g>
						<g>
							<path class="st1" d="M179.17,182.15c0,0.11-0.09,0.2-0.2,0.2c-0.11,0-0.2-0.09-0.2-0.2c0-0.11,0.09-0.2,0.2-0.2
								C179.09,181.95,179.17,182.04,179.17,182.15"/>
						</g>
						<g>
							<path class="st1" d="M187.6,182.15c0,0.11-0.09,0.2-0.2,0.2c-0.11,0-0.2-0.09-0.2-0.2c0-0.11,0.09-0.2,0.2-0.2
								C187.51,181.95,187.6,182.04,187.6,182.15"/>
						</g>
					</g>
				</g>
				<g>
					<path class="st1" d="M248.36,193.41c0,1.56-2.36,1.56-2.36,0C245.99,191.85,248.36,191.85,248.36,193.41z"/>
				</g>
				<g>
					<g>
						<g>
							<path class="st1" d="M95.74,186.55l1.77,6.09l1.85-6.09h2.22l-2.82,8.14h-2.33l-0.84-2.4l-0.72-2.71l-0.72,2.71l-0.84,2.4
								h-2.33l-2.84-8.14h2.23l1.85,6.09l1.76-6.09H95.74z"/>
						</g>
						<g>
							<path class="st1" d="M110.71,186.55l1.77,6.09l1.85-6.09h2.22l-2.82,8.14h-2.33l-0.84-2.4l-0.72-2.71l-0.72,2.71l-0.84,2.4
								h-2.33l-2.84-8.14h2.23l1.85,6.09l1.76-6.09H110.71z"/>
						</g>
						<g>
							<path class="st1" d="M125.69,186.55l1.77,6.09l1.85-6.09h2.22l-2.82,8.14h-2.33l-0.84-2.4l-0.72-2.71l-0.72,2.71l-0.84,2.4
								h-2.33l-2.84-8.14h2.23l1.85,6.09l1.76-6.09H125.69z"/>
						</g>
					</g>
					<g>
						<path class="st1" d="M134.91,193.52c0,1.56-2.36,1.56-2.36,0C132.54,191.96,134.91,191.96,134.91,193.52z"/>
					</g>
					<g>
						<path class="st1" d="M256.71,193.41c-0.94,0.92-1.92,1.28-3.12,1.28c-2.35,0-4.3-1.41-4.3-4.28c0-2.87,1.95-4.28,4.3-4.28
							c1.15,0,2.03,0.33,2.92,1.2l-1.26,1.33c-0.48-0.43-1.07-0.64-1.62-0.64c-1.35,0-2.33,0.98-2.33,2.4c0,1.54,1.05,2.36,2.3,2.36
							c0.64,0,1.28-0.18,1.77-0.67L256.71,193.41z"/>
					</g>
					<g>
						<path class="st1" d="M265.81,190.47c0,2.33-1.59,4.22-4.22,4.22c-2.63,0-4.2-1.89-4.2-4.22c0-2.31,1.61-4.22,4.18-4.22
							C264.15,186.26,265.81,188.16,265.81,190.47z M259.39,190.47c0,1.23,0.74,2.38,2.2,2.38c1.46,0,2.2-1.15,2.2-2.38
							c0-1.21-0.85-2.4-2.2-2.4C260.14,188.08,259.39,189.26,259.39,190.47z"/>
					</g>
					<g>
						<path class="st1" d="M272.57,194.69v-4.33c0-1.07-0.56-2.03-1.66-2.03c-1.08,0-1.72,0.97-1.72,2.03v4.33h-2v-8.11h1.85
							l0.15,0.98c0.43-0.82,1.36-1.12,2.13-1.12c0.97,0,1.94,0.39,2.4,1.51c0.72-1.15,1.66-1.48,2.71-1.48
							c2.3,0,3.43,1.41,3.43,3.84v4.37h-2v-4.37c0-1.07-0.44-1.97-1.53-1.97c-1.08,0-1.76,0.94-1.76,2v4.33H272.57z"/>
					</g>
				</g>
			</g>
		</g>
		<g class="st0">
			<g>
				<g>
					<path class="st1" d="M279.99,151.3c-0.01-1.22-0.96-2.12-2.19-2.14c-0.92-0.01-0.83,0.12-0.83-0.87c0-1.1-0.01-2.19,0-3.29
						c0-0.38-0.11-0.69-0.36-0.98c-2.34-2.67-4.68-5.34-7.02-8.01c-0.12-0.14-0.28-0.24-0.41-0.37c-6.21,0-12.43,0-18.64,0
						c-0.79,0.29-1.14,0.87-1.14,1.71c0.01,3.75,0,7.5,0,11.24c0,0.56,0,0.59-0.55,0.55c-1.5-0.1-2.52,0.99-2.5,2.49
						c0.04,3.48,0.01,6.95,0.01,10.43c0,1.58,0.87,2.44,2.45,2.45c0.58,0,0.58,0,0.58,0.6c0,2.22,0,4.44,0,6.66
						c0,1.19,0.58,1.77,1.77,1.77c8.01,0,16.03,0,24.04,0c1.17,0,1.76-0.58,1.76-1.75c0-2.26,0-4.51,0-6.77c0-0.51,0-0.51,0.52-0.52
						c0.27,0,0.54,0.01,0.81-0.06c1-0.25,1.69-1.04,1.69-2.07C280,158.7,280.01,155,279.99,151.3z M251.54,137.16
						c5.34,0,10.67,0,16.01,0c0.55,0,0.55,0.01,0.55,0.56c0,2.24,0,4.49,0,6.73c0,0.81,0.25,1.06,1.06,1.06c1.91,0,3.82,0,5.73,0
						c0.46,0,0.48,0.02,0.48,0.48c0,0.89,0,1.77,0,2.66c0,0.48-0.02,0.5-0.5,0.5c-3.89,0-7.79,0-11.68,0c-3.88,0-7.76,0-11.65,0
						c-0.55,0-0.55,0-0.55-0.56c0-3.62,0-7.25,0-10.87C250.99,137.17,250.99,137.16,251.54,137.16z M274.82,171.58
						c-3.88,0-7.77,0-11.65,0c-3.87,0-7.74,0-11.61,0c-0.57,0-0.57,0-0.57-0.58c0-2,0-3.99,0-5.99c0-0.46,0.02-0.49,0.48-0.49
						c7.8,0,15.61,0,23.41,0c0.48,0,0.5,0.02,0.5,0.5c0,2,0,3.99,0,5.99C275.37,171.57,275.37,171.58,274.82,171.58z"/>
				</g>
				<g>
					<g>
						<rect x="261.42" y="137.05" class="st1" width="1.76" height="1.05"/>
					</g>
					<g>
						<rect x="259.66" y="138.11" class="st1" width="1.76" height="1.05"/>
					</g>
					<g>
						<rect x="261.42" y="139.16" class="st1" width="1.76" height="1.05"/>
					</g>
					<g>
						<rect x="259.66" y="140.22" class="st1" width="1.76" height="1.05"/>
					</g>
					<g>
						<rect x="261.42" y="141.27" class="st1" width="1.76" height="1.05"/>
					</g>
					<g>
						<rect x="259.66" y="142.32" class="st1" width="1.76" height="1.05"/>
					</g>
					<g>
						<rect x="261.42" y="143.38" class="st1" width="1.76" height="1.05"/>
					</g>
					<g>
						<rect x="259.66" y="144.43" class="st1" width="1.76" height="1.05"/>
					</g>
					<g>
						<rect x="261.42" y="145.49" class="st1" width="1.76" height="1.05"/>
					</g>
					<g>
						<rect x="259.66" y="146.54" class="st1" width="1.76" height="1.05"/>
					</g>
					<g>
						<rect x="261.42" y="147.59" class="st1" width="1.76" height="1.05"/>
					</g>
					<g>
						<rect x="259.66" y="148.65" class="st1" width="1.76" height="1.05"/>
					</g>
				</g>
			</g>
			<g>
				<path class="st1" d="M121.64,151.3c-0.01-1.22-0.96-2.12-2.19-2.14c-0.92-0.01-0.83,0.12-0.83-0.87c0-1.1-0.01-2.19,0-3.29
					c0-0.38-0.11-0.69-0.36-0.98c-2.34-2.67-4.68-5.34-7.02-8.01c-0.12-0.14-0.28-0.24-0.41-0.37c-6.21,0-12.43,0-18.64,0
					c-0.79,0.29-1.14,0.87-1.14,1.71c0.01,3.75,0,7.5,0,11.24c0,0.56,0,0.59-0.55,0.55c-1.5-0.1-2.52,0.99-2.5,2.49
					c0.04,3.48,0.01,6.95,0.01,10.43c0,1.58,0.87,2.44,2.45,2.45c0.58,0,0.58,0,0.58,0.6c0,2.22,0,4.44,0,6.66
					c0,1.19,0.58,1.77,1.77,1.77c8.01,0,16.03,0,24.04,0c1.17,0,1.76-0.58,1.76-1.75c0-2.26,0-4.51,0-6.77c0-0.51,0-0.51,0.52-0.52
					c0.27,0,0.54,0.01,0.81-0.06c1-0.25,1.69-1.04,1.69-2.07C121.65,158.7,121.65,155,121.64,151.3z M93.19,137.16
					c5.34,0,10.67,0,16.01,0c0.55,0,0.55,0.01,0.55,0.56c0,2.24,0,4.49,0,6.73c0,0.81,0.25,1.06,1.06,1.06c1.91,0,3.82,0,5.73,0
					c0.46,0,0.48,0.02,0.48,0.48c0,0.89,0,1.77,0,2.66c0,0.48-0.02,0.5-0.5,0.5c-3.89,0-7.79,0-11.68,0c-3.88,0-7.76,0-11.65,0
					c-0.55,0-0.55,0-0.55-0.56c0-3.62,0-7.25,0-10.87C92.64,137.17,92.64,137.16,93.19,137.16z M116.47,171.58
					c-3.88,0-7.77,0-11.65,0c-3.87,0-7.74,0-11.61,0c-0.57,0-0.57,0-0.57-0.58c0-2,0-3.99,0-5.99c0-0.46,0.02-0.49,0.48-0.49
					c7.8,0,15.61,0,23.41,0c0.48,0,0.5,0.02,0.5,0.5c0,2,0,3.99,0,5.99C117.02,171.57,117.02,171.58,116.47,171.58z"/>
			</g>
			<g>
				<path class="st1" d="M93.78,160.67v-7.9h2.78c0.38,0,0.73,0.06,1.05,0.18c0.33,0.12,0.61,0.29,0.85,0.51
					c0.24,0.22,0.43,0.48,0.57,0.79c0.14,0.31,0.21,0.64,0.21,1.01c0,0.37-0.07,0.72-0.21,1.02c-0.14,0.31-0.33,0.57-0.57,0.79
					c-0.24,0.22-0.53,0.39-0.85,0.51c-0.33,0.12-0.68,0.18-1.05,0.18h-1.29v2.9H93.78z M96.58,156.36c0.39,0,0.68-0.11,0.88-0.33
					c0.2-0.22,0.3-0.47,0.3-0.76c0-0.14-0.02-0.28-0.07-0.41c-0.05-0.13-0.12-0.25-0.22-0.35c-0.1-0.1-0.22-0.18-0.37-0.24
					c-0.15-0.06-0.32-0.09-0.52-0.09h-1.31v2.17H96.58z"/>
				<path class="st1" d="M100.31,152.77h1.73l3.18,5.29h0.09l-0.09-1.52v-3.77h1.48v7.9h-1.57l-3.35-5.59h-0.09l0.09,1.52v4.07
					h-1.47V152.77z"/>
				<path class="st1" d="M111.92,156.33h3.87c0.02,0.09,0.04,0.2,0.05,0.32c0.01,0.12,0.02,0.25,0.02,0.38
					c0,0.51-0.08,0.99-0.23,1.43c-0.15,0.45-0.4,0.85-0.73,1.2c-0.35,0.38-0.78,0.67-1.27,0.87c-0.49,0.21-1.06,0.31-1.69,0.31
					c-0.57,0-1.11-0.1-1.62-0.31c-0.51-0.21-0.95-0.49-1.32-0.86c-0.38-0.37-0.67-0.8-0.89-1.31c-0.22-0.5-0.33-1.05-0.33-1.65
					c0-0.6,0.11-1.15,0.33-1.65c0.22-0.5,0.52-0.94,0.89-1.31c0.38-0.37,0.82-0.65,1.32-0.86c0.51-0.21,1.05-0.31,1.62-0.31
					c0.64,0,1.21,0.11,1.71,0.33s0.94,0.53,1.3,0.92l-1.03,1c-0.26-0.27-0.54-0.48-0.86-0.62c-0.32-0.14-0.7-0.22-1.14-0.22
					c-0.36,0-0.7,0.06-1.03,0.19c-0.32,0.13-0.61,0.31-0.85,0.55c-0.24,0.24-0.44,0.52-0.58,0.85c-0.14,0.33-0.22,0.71-0.22,1.12
					c0,0.41,0.07,0.79,0.22,1.12c0.14,0.33,0.34,0.62,0.58,0.85c0.25,0.24,0.53,0.42,0.86,0.55c0.32,0.13,0.67,0.19,1.04,0.19
					c0.42,0,0.77-0.06,1.06-0.18c0.29-0.12,0.54-0.28,0.74-0.47c0.15-0.13,0.27-0.3,0.38-0.5s0.19-0.43,0.25-0.68h-2.48V156.33z"/>
			</g>
			<g>
				<path class="st1" d="M158.02,151.3c-0.01-1.22-0.96-2.12-2.19-2.14c-0.92-0.01-0.83,0.12-0.83-0.87c0-1.1-0.01-2.19,0-3.29
					c0-0.38-0.11-0.69-0.36-0.98c-2.34-2.67-4.68-5.34-7.02-8.01c-0.12-0.14-0.28-0.24-0.41-0.37c-6.21,0-12.43,0-18.64,0
					c-0.79,0.29-1.14,0.87-1.14,1.71c0.01,3.75,0,7.5,0,11.24c0,0.56,0,0.59-0.55,0.55c-1.5-0.1-2.52,0.99-2.5,2.49
					c0.04,3.48,0.01,6.95,0.01,10.43c0,1.58,0.87,2.44,2.45,2.45c0.58,0,0.58,0,0.58,0.6c0,2.22,0,4.44,0,6.66
					c0,1.19,0.58,1.77,1.77,1.77c8.01,0,16.03,0,24.04,0c1.17,0,1.76-0.58,1.76-1.75c0-2.26,0-4.51,0-6.77c0-0.51,0-0.51,0.52-0.52
					c0.27,0,0.54,0.01,0.81-0.06c1-0.25,1.69-1.04,1.69-2.07C158.03,158.7,158.04,155,158.02,151.3z M129.57,137.16
					c5.34,0,10.67,0,16.01,0c0.55,0,0.55,0.01,0.55,0.56c0,2.24,0,4.49,0,6.73c0,0.81,0.25,1.06,1.06,1.06c1.91,0,3.82,0,5.73,0
					c0.46,0,0.48,0.02,0.48,0.48c0,0.89,0,1.77,0,2.66c0,0.48-0.02,0.5-0.5,0.5c-3.89,0-7.79,0-11.68,0c-3.88,0-7.76,0-11.65,0
					c-0.55,0-0.55,0-0.55-0.56c0-3.62,0-7.25,0-10.87C129.02,137.17,129.02,137.16,129.57,137.16z M152.85,171.58
					c-3.88,0-7.77,0-11.65,0c-3.87,0-7.74,0-11.61,0c-0.57,0-0.57,0-0.57-0.58c0-2,0-3.99,0-5.99c0-0.46,0.02-0.49,0.48-0.49
					c7.8,0,15.61,0,23.41,0c0.48,0,0.5,0.02,0.5,0.5c0,2,0,3.99,0,5.99C153.41,171.57,153.4,171.58,152.85,171.58z"/>
			</g>
			<g>
				<path class="st1" d="M139.11,152.77h1.7l2.97,7.9h-1.64l-0.65-1.89h-3.04l-0.65,1.89h-1.64L139.11,152.77z M141,157.41
					l-0.71-1.97l-0.29-0.96h-0.09l-0.29,0.96l-0.71,1.97H141z"/>
				<path class="st1" d="M145.33,154.54c-0.13,0-0.24-0.02-0.36-0.07c-0.11-0.05-0.21-0.11-0.3-0.2c-0.08-0.08-0.15-0.18-0.2-0.29
					c-0.05-0.11-0.07-0.23-0.07-0.36c0-0.13,0.02-0.25,0.07-0.36c0.05-0.11,0.11-0.21,0.2-0.29c0.08-0.08,0.18-0.15,0.3-0.2
					c0.11-0.05,0.23-0.07,0.36-0.07c0.26,0,0.48,0.09,0.66,0.27c0.18,0.18,0.28,0.4,0.28,0.66c0,0.26-0.09,0.48-0.28,0.66
					C145.81,154.45,145.59,154.54,145.33,154.54z M144.61,160.67v-5.4h1.44v5.4H144.61z"/>
			</g>
			<g>
				<path class="st1" d="M195.04,151.3c-0.01-1.22-0.96-2.12-2.19-2.14c-0.92-0.01-0.83,0.12-0.83-0.87c0-1.1-0.01-2.19,0-3.29
					c0-0.38-0.11-0.69-0.36-0.98c-2.34-2.67-4.68-5.34-7.02-8.01c-0.12-0.14-0.28-0.24-0.41-0.37c-6.21,0-12.43,0-18.64,0
					c-0.79,0.29-1.14,0.87-1.14,1.71c0.01,3.75,0,7.5,0,11.24c0,0.56,0,0.59-0.55,0.55c-1.5-0.1-2.52,0.99-2.5,2.49
					c0.04,3.48,0.01,6.95,0.01,10.43c0,1.58,0.87,2.44,2.45,2.45c0.58,0,0.58,0,0.58,0.6c0,2.22,0,4.44,0,6.66
					c0,1.19,0.58,1.77,1.77,1.77c8.01,0,16.03,0,24.04,0c1.17,0,1.76-0.58,1.76-1.75c0-2.26,0-4.51,0-6.77c0-0.51,0-0.51,0.52-0.52
					c0.27,0,0.54,0.01,0.81-0.06c1-0.25,1.69-1.04,1.69-2.07C195.06,158.7,195.06,155,195.04,151.3z M166.59,137.16
					c5.34,0,10.67,0,16.01,0c0.55,0,0.55,0.01,0.55,0.56c0,2.24,0,4.49,0,6.73c0,0.81,0.25,1.06,1.06,1.06c1.91,0,3.82,0,5.73,0
					c0.46,0,0.48,0.02,0.48,0.48c0,0.89,0,1.77,0,2.66c0,0.48-0.02,0.5-0.5,0.5c-3.89,0-7.79,0-11.68,0c-3.88,0-7.76,0-11.65,0
					c-0.55,0-0.55,0-0.55-0.56c0-3.62,0-7.25,0-10.87C166.04,137.17,166.05,137.16,166.59,137.16z M189.88,171.58
					c-3.88,0-7.77,0-11.65,0c-3.87,0-7.74,0-11.61,0c-0.57,0-0.57,0-0.57-0.58c0-2,0-3.99,0-5.99c0-0.46,0.02-0.49,0.48-0.49
					c7.8,0,15.61,0,23.41,0c0.48,0,0.5,0.02,0.5,0.5c0,2,0,3.99,0,5.99C190.43,171.57,190.43,171.58,189.88,171.58z"/>
			</g>
			<g>
				<path class="st1" d="M170.36,160.84c-0.34,0-0.66-0.05-0.97-0.14c-0.31-0.1-0.59-0.24-0.85-0.43c-0.26-0.19-0.48-0.42-0.67-0.7
					c-0.19-0.28-0.34-0.6-0.45-0.97l1.4-0.55c0.1,0.4,0.28,0.73,0.54,0.99c0.26,0.26,0.6,0.39,1.01,0.39c0.15,0,0.3-0.02,0.45-0.06
					c0.14-0.04,0.27-0.1,0.39-0.18c0.11-0.08,0.2-0.17,0.27-0.29c0.07-0.12,0.1-0.25,0.1-0.41c0-0.15-0.03-0.28-0.08-0.4
					c-0.05-0.12-0.14-0.23-0.26-0.33c-0.12-0.1-0.28-0.2-0.47-0.3c-0.19-0.1-0.44-0.19-0.72-0.3l-0.49-0.18
					c-0.21-0.07-0.43-0.17-0.65-0.3c-0.22-0.12-0.41-0.28-0.59-0.45c-0.18-0.18-0.32-0.38-0.44-0.62c-0.11-0.24-0.17-0.51-0.17-0.81
					c0-0.31,0.06-0.6,0.18-0.87c0.12-0.27,0.29-0.5,0.52-0.71c0.22-0.2,0.49-0.36,0.8-0.47s0.66-0.17,1.04-0.17
					c0.4,0,0.74,0.05,1.03,0.16c0.29,0.11,0.54,0.24,0.74,0.41c0.2,0.17,0.37,0.35,0.49,0.55c0.12,0.2,0.22,0.39,0.28,0.56
					l-1.31,0.55c-0.07-0.22-0.21-0.42-0.4-0.6c-0.2-0.18-0.46-0.26-0.8-0.26c-0.32,0-0.59,0.08-0.8,0.23
					c-0.21,0.15-0.32,0.35-0.32,0.59c0,0.24,0.1,0.44,0.31,0.6c0.21,0.17,0.53,0.33,0.98,0.48l0.5,0.17
					c0.32,0.11,0.6,0.24,0.87,0.38c0.26,0.14,0.49,0.31,0.67,0.51c0.19,0.2,0.33,0.42,0.43,0.68c0.1,0.25,0.15,0.55,0.15,0.88
					c0,0.41-0.08,0.77-0.25,1.06s-0.38,0.54-0.63,0.73c-0.26,0.19-0.55,0.33-0.87,0.43C170.99,160.8,170.67,160.84,170.36,160.84z"
					/>
				<path class="st1" d="M173.52,152.77h1.61l1.63,4.75l0.29,1.01h0.09l0.31-1.01l1.7-4.75h1.61l-2.88,7.9h-1.57L173.52,152.77z"/>
				<path class="st1" d="M185.1,156.33h3.87c0.02,0.09,0.04,0.2,0.05,0.32c0.02,0.12,0.02,0.25,0.02,0.38
					c0,0.51-0.08,0.99-0.23,1.43c-0.15,0.45-0.4,0.85-0.73,1.2c-0.35,0.38-0.78,0.67-1.27,0.87c-0.49,0.21-1.06,0.31-1.69,0.31
					c-0.57,0-1.11-0.1-1.62-0.31c-0.51-0.21-0.95-0.49-1.32-0.86c-0.38-0.37-0.67-0.8-0.89-1.31c-0.22-0.5-0.33-1.05-0.33-1.65
					c0-0.6,0.11-1.15,0.33-1.65c0.22-0.5,0.52-0.94,0.89-1.31c0.38-0.37,0.82-0.65,1.32-0.86c0.51-0.21,1.05-0.31,1.62-0.31
					c0.64,0,1.21,0.11,1.71,0.33c0.5,0.22,0.94,0.53,1.3,0.92l-1.03,1c-0.26-0.27-0.54-0.48-0.86-0.62
					c-0.32-0.14-0.69-0.22-1.14-0.22c-0.36,0-0.7,0.06-1.03,0.19c-0.32,0.13-0.61,0.31-0.85,0.55c-0.24,0.24-0.44,0.52-0.58,0.85
					c-0.14,0.33-0.22,0.71-0.22,1.12c0,0.41,0.07,0.79,0.22,1.12c0.14,0.33,0.34,0.62,0.58,0.85c0.25,0.24,0.53,0.42,0.85,0.55
					c0.32,0.13,0.67,0.19,1.04,0.19c0.42,0,0.77-0.06,1.06-0.18c0.29-0.12,0.54-0.28,0.74-0.47c0.15-0.13,0.27-0.3,0.38-0.5
					c0.11-0.2,0.19-0.43,0.25-0.68h-2.48V156.33z"/>
			</g>
			<g>
				<path class="st1" d="M231.3,151.3c-0.01-1.22-0.96-2.12-2.19-2.14c-0.92-0.01-0.83,0.12-0.83-0.87c0-1.1-0.01-2.19,0-3.29
					c0-0.38-0.11-0.69-0.36-0.98c-2.34-2.67-4.68-5.34-7.02-8.01c-0.12-0.14-0.28-0.24-0.41-0.37c-6.21,0-12.43,0-18.64,0
					c-0.79,0.29-1.14,0.87-1.14,1.71c0.01,3.75,0,7.5,0,11.24c0,0.56,0,0.59-0.55,0.55c-1.5-0.1-2.52,0.99-2.5,2.49
					c0.04,3.48,0.01,6.95,0.01,10.43c0,1.58,0.87,2.44,2.45,2.45c0.58,0,0.58,0,0.58,0.6c0,2.22,0,4.44,0,6.66
					c0,1.19,0.58,1.77,1.77,1.77c8.01,0,16.03,0,24.04,0c1.17,0,1.76-0.58,1.76-1.75c0-2.26,0-4.51,0-6.77c0-0.51,0-0.51,0.52-0.52
					c0.27,0,0.54,0.01,0.81-0.06c1-0.25,1.69-1.04,1.69-2.07C231.32,158.7,231.32,155,231.3,151.3z M202.85,137.16
					c5.34,0,10.67,0,16.01,0c0.55,0,0.55,0.01,0.55,0.56c0,2.24,0,4.49,0,6.73c0,0.81,0.25,1.06,1.06,1.06c1.91,0,3.82,0,5.73,0
					c0.46,0,0.48,0.02,0.48,0.48c0,0.89,0,1.77,0,2.66c0,0.48-0.02,0.5-0.5,0.5c-3.89,0-7.79,0-11.68,0c-3.88,0-7.76,0-11.65,0
					c-0.55,0-0.55,0-0.55-0.56c0-3.62,0-7.25,0-10.87C202.3,137.17,202.3,137.16,202.85,137.16z M226.13,171.58
					c-3.88,0-7.77,0-11.65,0c-3.87,0-7.74,0-11.61,0c-0.57,0-0.57,0-0.57-0.58c0-2,0-3.99,0-5.99c0-0.46,0.02-0.49,0.48-0.49
					c7.8,0,15.61,0,23.41,0c0.48,0,0.5,0.02,0.5,0.5c0,2,0,3.99,0,5.99C226.69,171.57,226.68,171.58,226.13,171.58z"/>
			</g>
			<g>
				<path class="st1" d="M206.97,154.18v1.83h3.17v1.41h-3.17v1.83h3.52v1.41h-5.01v-7.9h5.01v1.41H206.97z"/>
				<path class="st1" d="M211.85,160.67v-7.9h2.78c0.38,0,0.73,0.06,1.05,0.18c0.33,0.12,0.61,0.29,0.85,0.51
					c0.24,0.22,0.43,0.48,0.57,0.79c0.14,0.31,0.21,0.64,0.21,1.01c0,0.37-0.07,0.72-0.21,1.02c-0.14,0.31-0.33,0.57-0.57,0.79
					c-0.24,0.22-0.53,0.39-0.85,0.51c-0.33,0.12-0.68,0.18-1.05,0.18h-1.29v2.9H211.85z M214.65,156.36c0.39,0,0.68-0.11,0.88-0.33
					c0.2-0.22,0.3-0.47,0.3-0.76c0-0.14-0.02-0.28-0.07-0.41c-0.05-0.13-0.12-0.25-0.22-0.35c-0.1-0.1-0.22-0.18-0.37-0.24
					c-0.15-0.06-0.32-0.09-0.52-0.09h-1.31v2.17H214.65z"/>
				<path class="st1" d="M220.8,160.84c-0.34,0-0.66-0.05-0.97-0.14c-0.31-0.1-0.59-0.24-0.85-0.43c-0.26-0.19-0.48-0.42-0.67-0.7
					c-0.19-0.28-0.34-0.6-0.45-0.97l1.4-0.55c0.1,0.4,0.28,0.73,0.54,0.99c0.26,0.26,0.6,0.39,1.01,0.39c0.15,0,0.3-0.02,0.45-0.06
					c0.14-0.04,0.27-0.1,0.39-0.18c0.11-0.08,0.2-0.17,0.27-0.29c0.07-0.12,0.1-0.25,0.1-0.41c0-0.15-0.03-0.28-0.08-0.4
					c-0.05-0.12-0.14-0.23-0.26-0.33c-0.12-0.1-0.28-0.2-0.47-0.3c-0.19-0.1-0.44-0.19-0.72-0.3l-0.49-0.18
					c-0.21-0.07-0.43-0.17-0.65-0.3c-0.22-0.12-0.41-0.28-0.59-0.45c-0.18-0.18-0.32-0.38-0.44-0.62c-0.11-0.24-0.17-0.51-0.17-0.81
					c0-0.31,0.06-0.6,0.18-0.87c0.12-0.27,0.29-0.5,0.52-0.71c0.22-0.2,0.49-0.36,0.81-0.47c0.31-0.11,0.66-0.17,1.04-0.17
					c0.4,0,0.74,0.05,1.03,0.16c0.29,0.11,0.54,0.24,0.74,0.41c0.2,0.17,0.37,0.35,0.49,0.55c0.12,0.2,0.22,0.39,0.28,0.56
					l-1.31,0.55c-0.07-0.22-0.21-0.42-0.4-0.6c-0.19-0.18-0.46-0.26-0.8-0.26c-0.32,0-0.59,0.08-0.81,0.23
					c-0.21,0.15-0.32,0.35-0.32,0.59c0,0.24,0.1,0.44,0.31,0.6c0.21,0.17,0.53,0.33,0.98,0.48l0.5,0.17
					c0.32,0.11,0.6,0.24,0.87,0.38c0.26,0.14,0.49,0.31,0.67,0.51c0.19,0.2,0.33,0.42,0.43,0.68c0.1,0.25,0.15,0.55,0.15,0.88
					c0,0.41-0.08,0.77-0.25,1.06s-0.38,0.54-0.63,0.73c-0.26,0.19-0.55,0.33-0.87,0.43C221.42,160.8,221.11,160.84,220.8,160.84z"/>
			</g>
			<g>
				<path class="st1" d="M255.39,159.17l4-4.99h-3.83v-1.41h5.56v1.5l-3.96,4.99h4v1.41h-5.78V159.17z"/>
				<path class="st1" d="M262.41,152.77h1.49v7.9h-1.49V152.77z"/>
				<path class="st1" d="M265.49,160.67v-7.9h2.78c0.38,0,0.73,0.06,1.05,0.18c0.33,0.12,0.61,0.29,0.85,0.51
					c0.24,0.22,0.43,0.48,0.57,0.79c0.14,0.31,0.21,0.64,0.21,1.01c0,0.37-0.07,0.72-0.21,1.02c-0.14,0.31-0.33,0.57-0.57,0.79
					c-0.24,0.22-0.53,0.39-0.85,0.51c-0.33,0.12-0.68,0.18-1.05,0.18h-1.29v2.9H265.49z M268.29,156.36c0.39,0,0.68-0.11,0.88-0.33
					c0.2-0.22,0.3-0.47,0.3-0.76c0-0.14-0.02-0.28-0.07-0.41c-0.05-0.13-0.12-0.25-0.22-0.35c-0.1-0.1-0.22-0.18-0.37-0.24
					c-0.15-0.06-0.32-0.09-0.52-0.09h-1.31v2.17H268.29z"/>
			</g>
		</g>
		<g class="st0">
			<path class="st1" d="M234.13,153.27h9.07v2.24h-9.07V153.27z M234.13,157.14h9.07v2.24h-9.07V157.14z"/>
		</g>
	</g>
	<g class="st0">
		<path class="st1" d="M90.76,198.88h1.61c1.26,0,2.11,0.81,2.11,1.97s-0.85,1.97-2.11,1.97h-1.61V198.88z M92.34,202.46
			c1.05,0,1.73-0.67,1.73-1.61s-0.68-1.61-1.73-1.61h-1.17v3.23H92.34z"/>
		<path class="st1" d="M99.14,200.85c0-1.15,0.88-2.01,2.07-2.01c1.18,0,2.07,0.85,2.07,2.01c0,1.16-0.89,2.01-2.07,2.01
			C100.02,202.86,99.14,202,99.14,200.85z M102.87,200.85c0-0.94-0.7-1.64-1.65-1.64c-0.95,0-1.66,0.69-1.66,1.64
			c0,0.94,0.71,1.63,1.66,1.63C102.16,202.49,102.87,201.79,102.87,200.85z"/>
		<path class="st1" d="M113.6,198.88l-1.33,3.95h-0.44l-1.16-3.37l-1.16,3.37h-0.43l-1.33-3.95h0.43l1.14,3.39l1.18-3.39h0.39
			l1.16,3.41l1.16-3.41H113.6z"/>
		<path class="st1" d="M121.73,198.88v3.95h-0.34l-2.54-3.2v3.2h-0.42v-3.95h0.34l2.54,3.2v-3.2H121.73z"/>
		<path class="st1" d="M127.09,198.88h0.42v3.59h2.21v0.36h-2.63V198.88z"/>
		<path class="st1" d="M134.06,200.85c0-1.15,0.88-2.01,2.07-2.01c1.18,0,2.07,0.85,2.07,2.01c0,1.16-0.89,2.01-2.07,2.01
			C134.94,202.86,134.06,202,134.06,200.85z M137.79,200.85c0-0.94-0.7-1.64-1.65-1.64c-0.95,0-1.66,0.69-1.66,1.64
			c0,0.94,0.71,1.63,1.66,1.63C137.08,202.49,137.79,201.79,137.79,200.85z"/>
		<path class="st1" d="M145.64,201.77h-2.2l-0.47,1.05h-0.43l1.8-3.95h0.41l1.8,3.95h-0.44L145.64,201.77z M145.48,201.43
			l-0.95-2.12l-0.95,2.12H145.48z"/>
		<path class="st1" d="M151.28,198.88h1.61c1.26,0,2.11,0.81,2.11,1.97s-0.85,1.97-2.11,1.97h-1.61V198.88z M152.86,202.46
			c1.05,0,1.73-0.67,1.73-1.61s-0.68-1.61-1.73-1.61h-1.17v3.23H152.86z"/>
		<path class="st1" d="M168.04,201.77h-2.2l-0.47,1.05h-0.43l1.8-3.95h0.41l1.8,3.95h-0.44L168.04,201.77z M167.89,201.43
			l-0.95-2.12l-0.95,2.12H167.89z"/>
		<path class="st1" d="M173.68,198.88h0.42v3.59h2.21v0.36h-2.63V198.88z"/>
		<path class="st1" d="M181.08,198.88h0.42v3.59h2.21v0.36h-2.63V198.88z"/>
		<path class="st1" d="M194.45,199.24v1.55h2.04v0.36h-2.04v1.67h-0.42v-3.95h2.71v0.36H194.45z"/>
		<path class="st1" d="M201.68,198.88h0.42v3.95h-0.42V198.88z"/>
		<path class="st1" d="M207.46,198.88h0.42v3.59h2.21v0.36h-2.63V198.88z"/>
		<path class="st1" d="M217.64,202.46v0.36h-2.79v-3.95h2.71v0.36h-2.29v1.4h2.04V201h-2.04v1.47H217.64z"/>
		<path class="st1" d="M228.67,199.24v1.55h2.04v0.36h-2.04v1.67h-0.42v-3.95h2.71v0.36H228.67z"/>
		<path class="st1" d="M235.5,200.85c0-1.15,0.88-2.01,2.07-2.01c1.18,0,2.07,0.85,2.07,2.01c0,1.16-0.89,2.01-2.07,2.01
			C236.38,202.86,235.5,202,235.5,200.85z M239.23,200.85c0-0.94-0.7-1.64-1.65-1.64c-0.95,0-1.66,0.69-1.66,1.64
			c0,0.94,0.71,1.63,1.66,1.63C238.52,202.49,239.23,201.79,239.23,200.85z"/>
		<path class="st1" d="M247.35,202.82l-0.9-1.27c-0.1,0.01-0.2,0.02-0.32,0.02h-1.06v1.25h-0.42v-3.95h1.48c1,0,1.61,0.51,1.61,1.35
			c0,0.62-0.33,1.05-0.9,1.24l0.96,1.35H247.35z M247.33,200.23c0-0.63-0.42-0.99-1.21-0.99h-1.05v1.98h1.05
			C246.91,201.22,247.33,200.85,247.33,200.23z"/>
		<path class="st1" d="M256.91,198.88v3.95h-0.4v-3.16l-1.55,2.66h-0.2l-1.55-2.64v3.14h-0.4v-3.95h0.34l1.71,2.93l1.7-2.93H256.91z
			"/>
		<path class="st1" d="M264.74,201.77h-2.2l-0.47,1.05h-0.43l1.8-3.95h0.41l1.8,3.95h-0.44L264.74,201.77z M264.59,201.43
			l-0.95-2.12l-0.95,2.12H264.59z"/>
		<path class="st1" d="M270.96,199.24h-1.39v-0.36h3.19v0.36h-1.39v3.59h-0.42V199.24z"/>
		<path class="st1" d="M277.06,202.35l0.16-0.32c0.28,0.28,0.78,0.48,1.3,0.48c0.74,0,1.06-0.31,1.06-0.7
			c0-1.08-2.43-0.42-2.43-1.88c0-0.58,0.45-1.08,1.45-1.08c0.45,0,0.91,0.13,1.22,0.35l-0.14,0.33c-0.34-0.22-0.73-0.33-1.08-0.33
			c-0.72,0-1.04,0.32-1.04,0.72c0,1.08,2.43,0.43,2.43,1.87c0,0.58-0.46,1.08-1.47,1.08C277.94,202.86,277.36,202.65,277.06,202.35z
			"/>
	</g>
</g>
<g>
</g>
<g>
	<g>
		<path class="st2" d="M86.97,59.53c-2.79,0-5.2-0.08-7.23-0.23c-2.03-0.16-3.76-0.45-5.18-0.89c-1.42-0.44-2.58-1.03-3.48-1.77
			c-0.9-0.75-1.6-1.71-2.09-2.9c-0.5-1.18-0.84-2.6-1.02-4.25c-0.18-1.65-0.27-3.61-0.27-5.89v-0.7c0-2.27,0.09-4.25,0.27-5.93
			c0.18-1.68,0.53-3.11,1.04-4.3c0.51-1.18,1.22-2.14,2.11-2.87c0.9-0.73,2.06-1.3,3.48-1.7c1.42-0.4,3.15-0.69,5.18-0.84
			c2.03-0.16,4.43-0.23,7.19-0.23h1.33c3.56,0,6.47,0.16,8.7,0.47c2.24,0.31,3.99,0.85,5.26,1.61c1.27,0.76,2.14,1.8,2.61,3.11
			c0.47,1.31,0.7,2.94,0.7,4.9v1.21h-9.82v-0.51c0-0.5-0.09-0.93-0.27-1.28c-0.18-0.36-0.54-0.65-1.08-0.86
			c-0.54-0.22-1.33-0.37-2.36-0.47c-1.04-0.09-2.4-0.14-4.08-0.14h-0.75c-2.24,0-4.01,0.08-5.3,0.23c-1.3,0.16-2.27,0.5-2.9,1.03
			s-1.04,1.32-1.2,2.38c-0.17,1.06-0.25,2.49-0.25,4.3v0.37c0,1.81,0.08,3.24,0.23,4.3c0.15,1.06,0.55,1.87,1.2,2.43
			c0.65,0.56,1.62,0.93,2.9,1.1c1.28,0.17,3.06,0.26,5.33,0.26h0.75c1.99,0,3.56-0.06,4.7-0.19c1.15-0.12,2.01-0.33,2.59-0.61
			c0.58-0.28,0.95-0.65,1.1-1.12c0.15-0.47,0.23-1.04,0.23-1.73v-0.37H86.43v-6.26h19.48v6.73c0,2.3-0.26,4.21-0.77,5.72
			c-0.51,1.51-1.43,2.7-2.76,3.57c-1.33,0.87-3.13,1.48-5.41,1.82c-2.28,0.34-5.17,0.51-8.68,0.51H86.97L86.97,59.53z M139.94,59.15
			h-29.14V27.39h9.95v23.26h19.19V59.15L139.94,59.15z M175.97,59.15H143.1V27.39h32.33v7.66h-22.55v4.48h21.39v7.19h-21.39v4.72
			h23.08V59.15L175.97,59.15z M227.41,59.15h-9.57V37.76h-0.12l-10.28,21.39h-7.54l-10.07-21.39h-0.21v21.39h-9.57V27.39h13.64
			l10.15,21.35h0.12l10.07-21.35h13.39V59.15L227.41,59.15z"/>
		<path class="st2" d="M253.15,43.35h19.53c0.09,0.8,0.14,1.94,0.14,3.39c0,5.61-1,9.09-3.02,10.42c-2.02,1.33-7.27,1.99-15.78,1.99
			c-8.03,0-13.19-0.79-15.48-2.36c-2.29-1.57-3.44-5.11-3.44-10.6l-0.03-4.59l0.03-2.76c0-4.61,1.28-7.68,3.82-9.19
			c2.55-1.52,7.69-2.28,15.4-2.28c7.75,0,12.75,0.5,14.99,1.49c2.24,1,3.37,3.22,3.37,6.67v1.18h-5.05v-0.78
			c0-2.54-0.75-4.1-2.28-4.7c-1.53-0.6-5.5-0.9-11.94-0.9c-5.94,0-9.65,0.48-11.14,1.45c-1.49,0.97-2.23,3.38-2.23,7.24l-0.07,4.13
			l0.03,4.45c0,3.92,0.83,6.34,2.48,7.23c1.66,0.9,6.08,1.35,13.27,1.35c5.49,0,8.89-0.43,10.2-1.28c1.3-0.85,1.95-3.08,1.95-6.68
			c0-0.29-0.09-0.93-0.27-1.92h-14.48V43.35L253.15,43.35z M305.78,52.24h-23.07l-3.5,6.59h-5.45l16.69-31.13h7.21l17.02,31.13
			h-5.38L305.78,52.24L305.78,52.24z M304.28,49.6l-10.12-19.02l-9.98,19.02H304.28L304.28,49.6z M349.17,36.14h-5.1
			c0-2.51-0.62-4.1-1.83-4.78c-1.23-0.68-4.11-1.01-8.65-1.01c-5.39,0-8.85,0.33-10.41,0.97c-1.56,0.65-2.34,2.09-2.34,4.32
			c0,2.51,0.62,4.03,1.83,4.58c1.23,0.55,4.86,0.93,10.91,1.12c7.1,0.21,11.61,0.83,13.53,1.85c1.93,1.02,2.88,3.3,2.88,6.84
			c0,3.83-1.11,6.31-3.32,7.43c-2.22,1.13-7.11,1.69-14.67,1.69c-6.56,0-10.93-0.57-13.1-1.7c-2.17-1.14-3.25-3.42-3.25-6.85
			l-0.03-1.39h5.1v0.78c0,2.78,0.63,4.51,1.87,5.18c1.24,0.68,4.44,1.01,9.58,1.01c5.89,0,9.51-0.33,10.87-1.01
			c1.36-0.68,2.04-2.48,2.04-5.42c0-1.9-0.47-3.17-1.39-3.8c-0.92-0.63-2.85-1-5.79-1.13l-5.33-0.18l-5.07-0.19
			c-7.72-0.36-11.59-3.1-11.59-8.21c0-3.54,1.13-5.91,3.37-7.09c2.24-1.19,6.73-1.78,13.46-1.78c6.8,0,11.24,0.55,13.32,1.65
			C348.13,30.14,349.17,32.51,349.17,36.14L349.17,36.14z"/>
		<path class="st3" d="M29.31,58.95l-6.7-25.28c-1.45-0.06-2.61-1.33-2.61-2.9c0-1.6,1.21-2.9,2.71-2.9c1.5,0,2.71,1.3,2.71,2.9
			c0,1.14-0.61,2.12-1.5,2.6l6.73,12.32l0.25-16.32c-1.21-0.29-2.11-1.45-2.11-2.83c0-1.6,1.21-2.9,2.71-2.9s2.71,1.3,2.71,2.9
			c0,1.29-0.79,2.39-1.88,2.76l4.19,14.26l3.83-16.02c-0.93-0.46-1.58-1.47-1.58-2.64c0-1.6,1.21-2.9,2.71-2.9
			c1.5,0,2.71,1.3,2.71,2.9c0,1.47-1.02,2.69-2.35,2.87l3.93,15.87l4.52-14.36c-0.94-0.45-1.6-1.47-1.6-2.65
			c0-1.6,1.21-2.9,2.71-2.9c1.5,0,2.71,1.3,2.71,2.9c0,1.56-1.15,2.83-2.59,2.9l0.65,16.14l6.51-12.24
			c-0.79-0.51-1.32-1.43-1.32-2.49c0-1.6,1.21-2.9,2.71-2.9c1.5,0,2.71,1.3,2.71,2.9c0,1.6-1.21,2.9-2.71,2.9
			c-0.06,0-0.11,0-0.17-0.01l-6.58,25.1H29.31L29.31,58.95z"/>
	</g>
	<text transform="matrix(1.0361 0 0 1 68.9604 87.8447)" class="st4 st5">Service Center</text>
</g>
</svg>
