<?xml version="1.0" encoding="utf-8"?>
<!-- Generator: Adobe Illustrator 26.0.1, SVG Export Plug-In . SVG Version: 6.00 Build 0)  -->
<svg version="1.0" id="Layer_1" xmlns="http://www.w3.org/2000/svg" xmlns:xlink="http://www.w3.org/1999/xlink" x="0px" y="0px"
	 viewBox="0 0 500 186" style="enable-background:new 0 0 500 186;" xml:space="preserve">
<style type="text/css">
	.st0{opacity:0.61;}
	.st1{fill:#FFFFFF;}
	.st2{fill:#231F20;}
	.st3{fill-rule:evenodd;clip-rule:evenodd;fill:#EC1C24;stroke:#EC1C24;stroke-width:0.216;stroke-miterlimit:2.6131;}
	.st4{font-family:'MicrosoftSansSerif';}
	.st5{font-size:34.9291px;}
</style>
<g id="watermark_1_">
	<g>
		<g id="watermark" class="st0">
			<g>
				<g>
					<g>
						<g>
							<polygon class="st1" points="210.76,292.17 205.2,305.02 202.27,305.02 196.73,292.17 199.94,292.17 203.85,301.35 
								207.81,292.17 							"/>
						</g>
						<g>
							<path class="st1" d="M220.51,300.74h-7.47c0.28,1.23,1.32,1.98,2.83,1.98c1.05,0,1.8-0.31,2.48-0.95l1.52,1.65
								c-0.92,1.05-2.29,1.6-4.07,1.6c-3.41,0-5.63-2.15-5.63-5.08c0-2.95,2.26-5.08,5.27-5.08c2.9,0,5.14,1.95,5.14,5.12
								C220.56,300.19,220.53,300.5,220.51,300.74 M213,299.07h4.86c-0.2-1.25-1.14-2.06-2.42-2.06
								C214.14,297.02,213.2,297.81,213,299.07"/>
						</g>
						<g>
							<path class="st1" d="M221.74,299.93c0-2.97,2.29-5.08,5.51-5.08c2.07,0,3.71,0.9,4.42,2.51l-2.22,1.19
								c-0.53-0.94-1.32-1.36-2.22-1.36c-1.45,0-2.59,1.01-2.59,2.73c0,1.73,1.14,2.73,2.59,2.73c0.9,0,1.69-0.4,2.22-1.36
								l2.22,1.21c-0.72,1.58-2.35,2.5-4.42,2.5C224.03,305.02,221.74,302.91,221.74,299.93"/>
						</g>
						<g>
							<path class="st1" d="M239.83,304.39c-0.59,0.42-1.45,0.62-2.33,0.62c-2.33,0-3.69-1.19-3.69-3.54v-4.06h-1.52v-2.2h1.52v-2.4
								h2.86v2.4h2.46v2.2h-2.46v4.02c0,0.84,0.46,1.3,1.23,1.3c0.42,0,0.84-0.13,1.16-0.37L239.83,304.39z"/>
						</g>
					</g>
					<g>
						<path class="st1" d="M259.47,295v2.64c-0.24-0.02-0.42-0.04-0.64-0.04c-1.58,0-2.62,0.86-2.62,2.75v4.66h-2.86v-9.87h2.73v1.3
							C256.78,295.49,257.95,295,259.47,295"/>
					</g>
					<g>
						<path class="st1" d="M260.3,303.53l1.01-2.24c1.08,0.79,2.7,1.34,4.24,1.34c1.76,0,2.48-0.59,2.48-1.38
							c0-2.4-7.47-0.75-7.47-5.52c0-2.18,1.76-4,5.41-4c1.61,0,3.27,0.39,4.46,1.14l-0.92,2.26c-1.19-0.68-2.42-1.01-3.56-1.01
							c-1.76,0-2.44,0.66-2.44,1.47c0,2.37,7.47,0.73,7.47,5.45c0,2.15-1.78,3.98-5.45,3.98
							C263.49,305.02,261.44,304.41,260.3,303.53"/>
					</g>
					<g>
						<path class="st1" d="M282.43,300.74h-7.47c0.28,1.23,1.32,1.98,2.83,1.98c1.05,0,1.8-0.31,2.48-0.95l1.52,1.65
							c-0.92,1.05-2.29,1.6-4.07,1.6c-3.41,0-5.63-2.15-5.63-5.08c0-2.95,2.26-5.08,5.27-5.08c2.9,0,5.14,1.95,5.14,5.12
							C282.48,300.19,282.45,300.5,282.43,300.74 M274.92,299.07h4.86c-0.2-1.25-1.14-2.06-2.42-2.06
							C276.06,297.02,275.13,297.81,274.92,299.07"/>
					</g>
					<g>
						<path class="st1" d="M294.01,300.74h-7.47c0.28,1.23,1.32,1.98,2.83,1.98c1.05,0,1.8-0.31,2.48-0.95l1.52,1.65
							c-0.92,1.05-2.29,1.6-4.07,1.6c-3.41,0-5.63-2.15-5.63-5.08c0-2.95,2.26-5.08,5.27-5.08c2.9,0,5.14,1.95,5.14,5.12
							C294.06,300.19,294.02,300.5,294.01,300.74 M286.5,299.07h4.86c-0.2-1.25-1.14-2.06-2.42-2.06
							C287.64,297.02,286.7,297.81,286.5,299.07"/>
					</g>
					<g>
						<polygon class="st1" points="300.21,301.14 298.83,302.5 298.83,305.02 295.97,305.02 295.97,291.4 298.83,291.4 
							298.83,299.11 303.02,295.14 306.43,295.14 302.32,299.33 306.8,305.02 303.33,305.02 						"/>
					</g>
					<g>
						<path class="st1" d="M253.6,306.36L253.6,306.36l-2.86-2.86c-0.44,0.51-0.95,0.94-1.53,1.28c-0.09,0.07-0.19,0.14-0.28,0.2
							l3.03,3.03c0.46,0.46,1.19,0.46,1.65,0C254.06,307.55,254.06,306.81,253.6,306.36"/>
					</g>
					<g>
						<path class="st1" d="M246.98,294.24c0.22-0.17,0.49-0.28,0.8-0.28c0.04,0,0.08,0,0.12,0.01c-0.21-0.16-0.48-0.25-0.76-0.25
							c-0.39,0-0.74,0.18-0.98,0.46c-0.05,0-0.1,0.01-0.15,0.01c0.04-0.08,0.06-0.16,0.06-0.25c0-0.23-0.14-0.43-0.35-0.52
							c0.09,0.13,0.14,0.28,0.14,0.44c0,0.12-0.03,0.24-0.08,0.34c-2.81,0.2-5.03,2.54-5.03,5.4c0,2.99,2.43,5.42,5.42,5.42
							c2.99,0,5.42-2.43,5.42-5.42C251.6,296.88,249.59,294.64,246.98,294.24 M244.98,295.66c0.43,0,0.84,0.11,1.2,0.31
							c0.37-0.24,0.82-0.39,1.3-0.39c0.71,0,1.35,0.31,1.78,0.81c-0.44-0.38-1-0.61-1.63-0.61c-0.45,0-0.87,0.12-1.23,0.33
							c-0.08,0.05-0.16,0.1-0.23,0.15c-0.07-0.05-0.13-0.09-0.2-0.13c-0.37-0.22-0.8-0.34-1.26-0.34c-0.3,0-0.59,0.05-0.85,0.15
							C244.2,295.75,244.58,295.66,244.98,295.66 M248.77,300.1c0.12,0.3,0.18,0.63,0.18,0.98c0,1.53-1.24,2.78-2.78,2.78
							c-1.53,0-2.78-1.24-2.78-2.78c0-0.35,0.07-0.67,0.18-0.98c-0.62-0.38-1.03-1.06-1.03-1.85c0-1.2,0.97-2.17,2.17-2.17
							c0.56,0,1.08,0.22,1.46,0.57c0.39-0.35,0.9-0.57,1.46-0.57c1.2,0,2.17,0.97,2.17,2.17
							C249.81,299.03,249.39,299.72,248.77,300.1"/>
					</g>
					<g>
						<path class="st1" d="M248.67,298.06c0,0.5-0.4,0.9-0.9,0.9c-0.5,0-0.9-0.4-0.9-0.9s0.4-0.9,0.9-0.9c0.1,0,0.2,0.02,0.29,0.05
							c-0.03,0.06-0.05,0.13-0.05,0.2c0,0.27,0.22,0.49,0.49,0.49c0.05,0,0.1-0.01,0.15-0.02
							C248.66,297.94,248.67,298,248.67,298.06"/>
					</g>
					<g>
						<path class="st1" d="M245.26,298.06c0,0.38-0.31,0.68-0.68,0.68c-0.38,0-0.68-0.31-0.68-0.68s0.31-0.68,0.68-0.68
							c0.08,0,0.15,0.01,0.22,0.04c-0.02,0.05-0.03,0.1-0.03,0.15c0,0.21,0.17,0.37,0.37,0.37c0.04,0,0.08-0.01,0.11-0.02
							C245.25,297.97,245.26,298.02,245.26,298.06"/>
					</g>
					<g>
						<g>
							<g>
								<rect x="239.91" y="298.83" class="st1" width="0.62" height="0.62"/>
							</g>
							<g>
								<rect x="251.83" y="298.83" class="st1" width="0.62" height="0.62"/>
							</g>
							<g>
								<path class="st1" d="M252.21,299.08h-0.14c0-3.25-2.64-5.89-5.89-5.89c-3.25,0-5.89,2.64-5.89,5.89h-0.14
									c0-1.61,0.63-3.12,1.77-4.26c1.14-1.14,2.65-1.77,4.26-1.77c1.61,0,3.12,0.63,4.26,1.77
									C251.58,295.96,252.21,297.47,252.21,299.08"/>
							</g>
						</g>
						<g>
							<rect x="245.87" y="292.81" class="st1" width="0.62" height="0.62"/>
						</g>
						<g>
							<rect x="241.95" y="293.05" class="st1" width="8.45" height="0.14"/>
						</g>
						<g>
							<path class="st1" d="M242.17,293.15c0,0.11-0.09,0.2-0.2,0.2c-0.11,0-0.2-0.09-0.2-0.2c0-0.11,0.09-0.2,0.2-0.2
								C242.09,292.95,242.17,293.04,242.17,293.15"/>
						</g>
						<g>
							<path class="st1" d="M250.6,293.15c0,0.11-0.09,0.2-0.2,0.2c-0.11,0-0.2-0.09-0.2-0.2c0-0.11,0.09-0.2,0.2-0.2
								C250.51,292.95,250.6,293.04,250.6,293.15"/>
						</g>
					</g>
				</g>
				<g>
					<path class="st1" d="M311.36,304.41c0,1.56-2.36,1.56-2.36,0C308.99,302.85,311.36,302.85,311.36,304.41z"/>
				</g>
				<g>
					<g>
						<g>
							<path class="st1" d="M158.74,297.55l1.77,6.09l1.85-6.09h2.22l-2.82,8.14h-2.33l-0.84-2.4l-0.72-2.71l-0.72,2.71l-0.84,2.4
								h-2.33l-2.84-8.14h2.23l1.85,6.09l1.76-6.09H158.74z"/>
						</g>
						<g>
							<path class="st1" d="M173.71,297.55l1.77,6.09l1.85-6.09h2.22l-2.82,8.14h-2.33l-0.84-2.4l-0.72-2.71l-0.72,2.71l-0.84,2.4
								h-2.33l-2.84-8.14h2.23l1.85,6.09l1.76-6.09H173.71z"/>
						</g>
						<g>
							<path class="st1" d="M188.69,297.55l1.77,6.09l1.85-6.09h2.22l-2.82,8.14h-2.33l-0.84-2.4l-0.72-2.71l-0.72,2.71l-0.84,2.4
								h-2.33l-2.84-8.14h2.23l1.85,6.09l1.76-6.09H188.69z"/>
						</g>
					</g>
					<g>
						<path class="st1" d="M197.91,304.52c0,1.56-2.36,1.56-2.36,0C195.54,302.96,197.91,302.96,197.91,304.52z"/>
					</g>
					<g>
						<path class="st1" d="M319.71,304.41c-0.94,0.92-1.92,1.28-3.12,1.28c-2.35,0-4.3-1.41-4.3-4.28s1.95-4.28,4.3-4.28
							c1.15,0,2.03,0.33,2.92,1.2l-1.26,1.33c-0.48-0.43-1.07-0.64-1.62-0.64c-1.35,0-2.33,0.98-2.33,2.4c0,1.54,1.05,2.36,2.3,2.36
							c0.64,0,1.28-0.18,1.77-0.67L319.71,304.41z"/>
					</g>
					<g>
						<path class="st1" d="M328.81,301.47c0,2.33-1.59,4.22-4.22,4.22c-2.63,0-4.2-1.89-4.2-4.22c0-2.31,1.61-4.22,4.18-4.22
							C327.15,297.26,328.81,299.16,328.81,301.47z M322.39,301.47c0,1.23,0.74,2.38,2.2,2.38c1.46,0,2.2-1.15,2.2-2.38
							c0-1.21-0.85-2.4-2.2-2.4C323.14,299.08,322.39,300.26,322.39,301.47z"/>
					</g>
					<g>
						<path class="st1" d="M335.57,305.69v-4.33c0-1.07-0.56-2.03-1.66-2.03c-1.08,0-1.72,0.97-1.72,2.03v4.33h-2v-8.11h1.85
							l0.15,0.98c0.43-0.82,1.36-1.12,2.13-1.12c0.97,0,1.94,0.39,2.4,1.51c0.72-1.15,1.66-1.48,2.71-1.48
							c2.3,0,3.43,1.41,3.43,3.84v4.37h-2v-4.37c0-1.07-0.44-1.97-1.53-1.97c-1.08,0-1.76,0.94-1.76,2v4.33H335.57z"/>
					</g>
				</g>
			</g>
		</g>
		<g class="st0">
			<g>
				<g>
					<path class="st1" d="M342.99,262.3c-0.01-1.22-0.96-2.12-2.19-2.14c-0.92-0.01-0.83,0.12-0.83-0.87c0-1.1-0.01-2.19,0-3.29
						c0-0.38-0.11-0.69-0.36-0.98c-2.34-2.67-4.68-5.34-7.02-8.01c-0.12-0.14-0.28-0.24-0.41-0.37c-6.21,0-12.43,0-18.64,0
						c-0.79,0.29-1.14,0.87-1.14,1.71c0.01,3.75,0,7.5,0,11.24c0,0.56,0,0.59-0.55,0.55c-1.5-0.1-2.52,0.99-2.5,2.49
						c0.04,3.48,0.01,6.95,0.01,10.43c0,1.58,0.87,2.44,2.45,2.45c0.58,0,0.58,0,0.58,0.6c0,2.22,0,4.44,0,6.66
						c0,1.19,0.58,1.77,1.77,1.77c8.01,0,16.03,0,24.04,0c1.17,0,1.76-0.58,1.76-1.75c0-2.26,0-4.51,0-6.77c0-0.51,0-0.51,0.52-0.52
						c0.27,0,0.54,0.01,0.81-0.06c1-0.25,1.69-1.04,1.69-2.07C343,269.7,343.01,266,342.99,262.3z M314.54,248.16
						c5.34,0,10.67,0,16.01,0c0.55,0,0.55,0.01,0.55,0.56c0,2.24,0,4.49,0,6.73c0,0.81,0.25,1.06,1.06,1.06c1.91,0,3.82,0,5.73,0
						c0.46,0,0.48,0.02,0.48,0.48c0,0.89,0,1.77,0,2.66c0,0.48-0.02,0.5-0.5,0.5c-3.89,0-7.79,0-11.68,0c-3.88,0-7.76,0-11.65,0
						c-0.55,0-0.55,0-0.55-0.56c0-3.62,0-7.25,0-10.87C313.99,248.17,313.99,248.16,314.54,248.16z M337.82,282.58
						c-3.88,0-7.77,0-11.65,0c-3.87,0-7.74,0-11.61,0c-0.57,0-0.57,0-0.57-0.58c0-2,0-3.99,0-5.99c0-0.46,0.02-0.49,0.48-0.49
						c7.8,0,15.61,0,23.41,0c0.48,0,0.5,0.02,0.5,0.5c0,2,0,3.99,0,5.99C338.37,282.57,338.37,282.58,337.82,282.58z"/>
				</g>
				<g>
					<g>
						<rect x="324.42" y="248.05" class="st1" width="1.76" height="1.05"/>
					</g>
					<g>
						<rect x="322.66" y="249.11" class="st1" width="1.76" height="1.05"/>
					</g>
					<g>
						<rect x="324.42" y="250.16" class="st1" width="1.76" height="1.05"/>
					</g>
					<g>
						<rect x="322.66" y="251.22" class="st1" width="1.76" height="1.05"/>
					</g>
					<g>
						<rect x="324.42" y="252.27" class="st1" width="1.76" height="1.05"/>
					</g>
					<g>
						<rect x="322.66" y="253.32" class="st1" width="1.76" height="1.05"/>
					</g>
					<g>
						<rect x="324.42" y="254.38" class="st1" width="1.76" height="1.05"/>
					</g>
					<g>
						<rect x="322.66" y="255.43" class="st1" width="1.76" height="1.05"/>
					</g>
					<g>
						<rect x="324.42" y="256.49" class="st1" width="1.76" height="1.05"/>
					</g>
					<g>
						<rect x="322.66" y="257.54" class="st1" width="1.76" height="1.05"/>
					</g>
					<g>
						<rect x="324.42" y="258.59" class="st1" width="1.76" height="1.05"/>
					</g>
					<g>
						<rect x="322.66" y="259.65" class="st1" width="1.76" height="1.05"/>
					</g>
				</g>
			</g>
			<g>
				<path class="st1" d="M184.64,262.3c-0.01-1.22-0.96-2.12-2.19-2.14c-0.92-0.01-0.83,0.12-0.83-0.87c0-1.1-0.01-2.19,0-3.29
					c0-0.38-0.11-0.69-0.36-0.98c-2.34-2.67-4.68-5.34-7.02-8.01c-0.12-0.14-0.28-0.24-0.41-0.37c-6.21,0-12.43,0-18.64,0
					c-0.79,0.29-1.14,0.87-1.14,1.71c0.01,3.75,0,7.5,0,11.24c0,0.56,0,0.59-0.55,0.55c-1.5-0.1-2.52,0.99-2.5,2.49
					c0.04,3.48,0.01,6.95,0.01,10.43c0,1.58,0.87,2.44,2.45,2.45c0.58,0,0.58,0,0.58,0.6c0,2.22,0,4.44,0,6.66
					c0,1.19,0.58,1.77,1.77,1.77c8.01,0,16.03,0,24.04,0c1.17,0,1.76-0.58,1.76-1.75c0-2.26,0-4.51,0-6.77c0-0.51,0-0.51,0.52-0.52
					c0.27,0,0.54,0.01,0.81-0.06c1-0.25,1.69-1.04,1.69-2.07C184.65,269.7,184.65,266,184.64,262.3z M156.19,248.16
					c5.34,0,10.67,0,16.01,0c0.55,0,0.55,0.01,0.55,0.56c0,2.24,0,4.49,0,6.73c0,0.81,0.25,1.06,1.06,1.06c1.91,0,3.82,0,5.73,0
					c0.46,0,0.48,0.02,0.48,0.48c0,0.89,0,1.77,0,2.66c0,0.48-0.02,0.5-0.5,0.5c-3.89,0-7.79,0-11.68,0c-3.88,0-7.76,0-11.65,0
					c-0.55,0-0.55,0-0.55-0.56c0-3.62,0-7.25,0-10.87C155.64,248.17,155.64,248.16,156.19,248.16z M179.47,282.58
					c-3.88,0-7.77,0-11.65,0c-3.87,0-7.74,0-11.61,0c-0.57,0-0.57,0-0.57-0.58c0-2,0-3.99,0-5.99c0-0.46,0.02-0.49,0.48-0.49
					c7.8,0,15.61,0,23.41,0c0.48,0,0.5,0.02,0.5,0.5c0,2,0,3.99,0,5.99C180.02,282.57,180.02,282.58,179.47,282.58z"/>
			</g>
			<g>
				<path class="st1" d="M156.78,271.67v-7.9h2.78c0.38,0,0.73,0.06,1.05,0.18c0.33,0.12,0.61,0.29,0.85,0.51
					c0.24,0.22,0.43,0.48,0.57,0.79c0.14,0.31,0.21,0.64,0.21,1.01c0,0.37-0.07,0.72-0.21,1.02c-0.14,0.31-0.33,0.57-0.57,0.79
					c-0.24,0.22-0.53,0.39-0.85,0.51c-0.33,0.12-0.68,0.18-1.05,0.18h-1.29v2.9H156.78z M159.58,267.36c0.39,0,0.68-0.11,0.88-0.33
					c0.2-0.22,0.3-0.47,0.3-0.76c0-0.14-0.02-0.28-0.07-0.41c-0.05-0.13-0.12-0.25-0.22-0.35c-0.1-0.1-0.22-0.18-0.37-0.24
					c-0.15-0.06-0.32-0.09-0.52-0.09h-1.31v2.17H159.58z"/>
				<path class="st1" d="M163.31,263.77h1.73l3.18,5.29h0.09l-0.09-1.52v-3.77h1.48v7.9h-1.57l-3.35-5.59h-0.09l0.09,1.52v4.07
					h-1.47V263.77z"/>
				<path class="st1" d="M174.92,267.33h3.87c0.02,0.09,0.04,0.2,0.05,0.32c0.01,0.12,0.02,0.25,0.02,0.38
					c0,0.51-0.08,0.99-0.23,1.43c-0.15,0.45-0.4,0.85-0.73,1.2c-0.35,0.38-0.78,0.67-1.27,0.87c-0.49,0.21-1.06,0.31-1.69,0.31
					c-0.57,0-1.11-0.1-1.62-0.31c-0.51-0.21-0.95-0.49-1.32-0.86c-0.38-0.37-0.67-0.8-0.89-1.31c-0.22-0.5-0.33-1.05-0.33-1.65
					c0-0.6,0.11-1.15,0.33-1.65c0.22-0.5,0.52-0.94,0.89-1.31c0.38-0.37,0.82-0.65,1.32-0.86c0.51-0.21,1.05-0.31,1.62-0.31
					c0.64,0,1.21,0.11,1.71,0.33c0.5,0.22,0.94,0.53,1.3,0.92l-1.03,1c-0.26-0.27-0.54-0.48-0.86-0.62
					c-0.32-0.14-0.7-0.22-1.14-0.22c-0.36,0-0.7,0.06-1.03,0.19c-0.32,0.13-0.61,0.31-0.85,0.55c-0.24,0.24-0.44,0.52-0.58,0.85
					c-0.14,0.33-0.22,0.71-0.22,1.12c0,0.41,0.07,0.79,0.22,1.12c0.14,0.33,0.34,0.62,0.58,0.85c0.25,0.24,0.53,0.42,0.86,0.55
					c0.32,0.13,0.67,0.19,1.04,0.19c0.42,0,0.77-0.06,1.06-0.18c0.29-0.12,0.54-0.28,0.74-0.47c0.15-0.13,0.27-0.3,0.38-0.5
					c0.11-0.2,0.19-0.43,0.25-0.68h-2.48V267.33z"/>
			</g>
			<g>
				<path class="st1" d="M221.02,262.3c-0.01-1.22-0.96-2.12-2.19-2.14c-0.92-0.01-0.83,0.12-0.83-0.87c0-1.1-0.01-2.19,0-3.29
					c0-0.38-0.11-0.69-0.36-0.98c-2.34-2.67-4.68-5.34-7.02-8.01c-0.12-0.14-0.28-0.24-0.41-0.37c-6.21,0-12.43,0-18.64,0
					c-0.79,0.29-1.14,0.87-1.14,1.71c0.01,3.75,0,7.5,0,11.24c0,0.56,0,0.59-0.55,0.55c-1.5-0.1-2.52,0.99-2.5,2.49
					c0.04,3.48,0.01,6.95,0.01,10.43c0,1.58,0.87,2.44,2.45,2.45c0.58,0,0.58,0,0.58,0.6c0,2.22,0,4.44,0,6.66
					c0,1.19,0.58,1.77,1.77,1.77c8.01,0,16.03,0,24.04,0c1.17,0,1.76-0.58,1.76-1.75c0-2.26,0-4.51,0-6.77c0-0.51,0-0.51,0.52-0.52
					c0.27,0,0.54,0.01,0.81-0.06c1-0.25,1.69-1.04,1.69-2.07C221.03,269.7,221.04,266,221.02,262.3z M192.57,248.16
					c5.34,0,10.67,0,16.01,0c0.55,0,0.55,0.01,0.55,0.56c0,2.24,0,4.49,0,6.73c0,0.81,0.25,1.06,1.06,1.06c1.91,0,3.82,0,5.73,0
					c0.46,0,0.48,0.02,0.48,0.48c0,0.89,0,1.77,0,2.66c0,0.48-0.02,0.5-0.5,0.5c-3.89,0-7.79,0-11.68,0c-3.88,0-7.76,0-11.65,0
					c-0.55,0-0.55,0-0.55-0.56c0-3.62,0-7.25,0-10.87C192.02,248.17,192.02,248.16,192.57,248.16z M215.85,282.58
					c-3.88,0-7.77,0-11.65,0c-3.87,0-7.74,0-11.61,0c-0.57,0-0.57,0-0.57-0.58c0-2,0-3.99,0-5.99c0-0.46,0.02-0.49,0.48-0.49
					c7.8,0,15.61,0,23.41,0c0.48,0,0.5,0.02,0.5,0.5c0,2,0,3.99,0,5.99C216.41,282.57,216.4,282.58,215.85,282.58z"/>
			</g>
			<g>
				<path class="st1" d="M202.11,263.77h1.7l2.97,7.9h-1.64l-0.65-1.89h-3.04l-0.65,1.89h-1.64L202.11,263.77z M204,268.42
					l-0.71-1.97l-0.29-0.96h-0.09l-0.29,0.96l-0.71,1.97H204z"/>
				<path class="st1" d="M208.33,265.54c-0.13,0-0.24-0.02-0.36-0.07c-0.11-0.05-0.21-0.11-0.3-0.2c-0.08-0.08-0.15-0.18-0.2-0.29
					c-0.05-0.11-0.07-0.23-0.07-0.36s0.02-0.25,0.07-0.36c0.05-0.11,0.11-0.21,0.2-0.29c0.08-0.08,0.18-0.15,0.3-0.2
					c0.11-0.05,0.23-0.07,0.36-0.07c0.26,0,0.48,0.09,0.66,0.27c0.18,0.18,0.28,0.4,0.28,0.66s-0.09,0.48-0.28,0.66
					C208.81,265.45,208.59,265.54,208.33,265.54z M207.61,271.67v-5.4h1.44v5.4H207.61z"/>
			</g>
			<g>
				<path class="st1" d="M258.04,262.3c-0.01-1.22-0.96-2.12-2.19-2.14c-0.92-0.01-0.83,0.12-0.83-0.87c0-1.1-0.01-2.19,0-3.29
					c0-0.38-0.11-0.69-0.36-0.98c-2.34-2.67-4.68-5.34-7.02-8.01c-0.12-0.14-0.28-0.24-0.41-0.37c-6.21,0-12.43,0-18.64,0
					c-0.79,0.29-1.14,0.87-1.14,1.71c0.01,3.75,0,7.5,0,11.24c0,0.56,0,0.59-0.55,0.55c-1.5-0.1-2.52,0.99-2.5,2.49
					c0.04,3.48,0.01,6.95,0.01,10.43c0,1.58,0.87,2.44,2.45,2.45c0.58,0,0.58,0,0.58,0.6c0,2.22,0,4.44,0,6.66
					c0,1.19,0.58,1.77,1.77,1.77c8.01,0,16.03,0,24.04,0c1.17,0,1.76-0.58,1.76-1.75c0-2.26,0-4.51,0-6.77c0-0.51,0-0.51,0.52-0.52
					c0.27,0,0.54,0.01,0.81-0.06c1-0.25,1.69-1.04,1.69-2.07C258.06,269.7,258.06,266,258.04,262.3z M229.59,248.16
					c5.34,0,10.67,0,16.01,0c0.55,0,0.55,0.01,0.55,0.56c0,2.24,0,4.49,0,6.73c0,0.81,0.25,1.06,1.06,1.06c1.91,0,3.82,0,5.73,0
					c0.46,0,0.48,0.02,0.48,0.48c0,0.89,0,1.77,0,2.66c0,0.48-0.02,0.5-0.5,0.5c-3.89,0-7.79,0-11.68,0c-3.88,0-7.76,0-11.65,0
					c-0.55,0-0.55,0-0.55-0.56c0-3.62,0-7.25,0-10.87C229.04,248.17,229.05,248.16,229.59,248.16z M252.88,282.58
					c-3.88,0-7.77,0-11.65,0c-3.87,0-7.74,0-11.61,0c-0.57,0-0.57,0-0.57-0.58c0-2,0-3.99,0-5.99c0-0.46,0.02-0.49,0.48-0.49
					c7.8,0,15.61,0,23.41,0c0.48,0,0.5,0.02,0.5,0.5c0,2,0,3.99,0,5.99C253.43,282.57,253.43,282.58,252.88,282.58z"/>
			</g>
			<g>
				<path class="st1" d="M233.36,271.84c-0.34,0-0.66-0.05-0.97-0.14c-0.31-0.1-0.59-0.24-0.85-0.43c-0.26-0.19-0.48-0.42-0.67-0.7
					c-0.19-0.28-0.34-0.6-0.45-0.97l1.4-0.55c0.1,0.4,0.28,0.73,0.54,0.99c0.26,0.26,0.6,0.39,1.01,0.39c0.15,0,0.3-0.02,0.45-0.06
					c0.14-0.04,0.27-0.1,0.39-0.18s0.2-0.17,0.27-0.29c0.07-0.12,0.1-0.25,0.1-0.41c0-0.15-0.03-0.28-0.08-0.4
					c-0.05-0.12-0.14-0.23-0.26-0.33c-0.12-0.1-0.28-0.2-0.47-0.3c-0.19-0.1-0.44-0.19-0.72-0.3l-0.49-0.18
					c-0.21-0.07-0.43-0.17-0.65-0.3c-0.22-0.12-0.41-0.28-0.59-0.45c-0.18-0.18-0.32-0.38-0.44-0.62c-0.11-0.24-0.17-0.51-0.17-0.81
					c0-0.31,0.06-0.6,0.18-0.87c0.12-0.27,0.29-0.5,0.52-0.71c0.22-0.2,0.49-0.36,0.8-0.47s0.66-0.17,1.04-0.17
					c0.4,0,0.74,0.05,1.03,0.16c0.29,0.11,0.54,0.24,0.74,0.41c0.2,0.17,0.37,0.35,0.49,0.55c0.12,0.2,0.22,0.39,0.28,0.56
					l-1.31,0.55c-0.07-0.22-0.21-0.42-0.4-0.6c-0.2-0.18-0.46-0.26-0.8-0.26c-0.32,0-0.59,0.08-0.8,0.23
					c-0.21,0.15-0.32,0.35-0.32,0.59c0,0.24,0.1,0.44,0.31,0.6c0.21,0.17,0.53,0.33,0.98,0.48l0.5,0.17
					c0.32,0.11,0.6,0.24,0.87,0.38c0.26,0.14,0.49,0.31,0.67,0.51c0.19,0.2,0.33,0.42,0.43,0.68c0.1,0.25,0.15,0.55,0.15,0.88
					c0,0.41-0.08,0.77-0.25,1.06c-0.17,0.3-0.38,0.54-0.63,0.73c-0.26,0.19-0.55,0.33-0.87,0.43
					C233.99,271.8,233.67,271.84,233.36,271.84z"/>
				<path class="st1" d="M236.52,263.77h1.61l1.63,4.75l0.29,1.01h0.09l0.31-1.01l1.7-4.75h1.61l-2.88,7.9h-1.57L236.52,263.77z"/>
				<path class="st1" d="M248.1,267.33h3.87c0.02,0.09,0.04,0.2,0.05,0.32c0.02,0.12,0.02,0.25,0.02,0.38
					c0,0.51-0.08,0.99-0.23,1.43c-0.15,0.45-0.4,0.85-0.73,1.2c-0.35,0.38-0.78,0.67-1.27,0.87c-0.49,0.21-1.06,0.31-1.69,0.31
					c-0.57,0-1.11-0.1-1.62-0.31c-0.51-0.21-0.95-0.49-1.32-0.86c-0.38-0.37-0.67-0.8-0.89-1.31c-0.22-0.5-0.33-1.05-0.33-1.65
					c0-0.6,0.11-1.15,0.33-1.65c0.22-0.5,0.52-0.94,0.89-1.31c0.38-0.37,0.82-0.65,1.32-0.86c0.51-0.21,1.05-0.31,1.62-0.31
					c0.64,0,1.21,0.11,1.71,0.33c0.5,0.22,0.94,0.53,1.3,0.92l-1.03,1c-0.26-0.27-0.54-0.48-0.86-0.62
					c-0.32-0.14-0.69-0.22-1.14-0.22c-0.36,0-0.7,0.06-1.03,0.19c-0.32,0.13-0.61,0.31-0.85,0.55c-0.24,0.24-0.44,0.52-0.58,0.85
					c-0.14,0.33-0.22,0.71-0.22,1.12c0,0.41,0.07,0.79,0.22,1.12c0.14,0.33,0.34,0.62,0.58,0.85c0.25,0.24,0.53,0.42,0.85,0.55
					c0.32,0.13,0.67,0.19,1.04,0.19c0.42,0,0.77-0.06,1.06-0.18c0.29-0.12,0.54-0.28,0.74-0.47c0.15-0.13,0.27-0.3,0.38-0.5
					c0.11-0.2,0.19-0.43,0.25-0.68h-2.48V267.33z"/>
			</g>
			<g>
				<path class="st1" d="M294.3,262.3c-0.01-1.22-0.96-2.12-2.19-2.14c-0.92-0.01-0.83,0.12-0.83-0.87c0-1.1-0.01-2.19,0-3.29
					c0-0.38-0.11-0.69-0.36-0.98c-2.34-2.67-4.68-5.34-7.02-8.01c-0.12-0.14-0.28-0.24-0.41-0.37c-6.21,0-12.43,0-18.64,0
					c-0.79,0.29-1.14,0.87-1.14,1.71c0.01,3.75,0,7.5,0,11.24c0,0.56,0,0.59-0.55,0.55c-1.5-0.1-2.52,0.99-2.5,2.49
					c0.04,3.48,0.01,6.95,0.01,10.43c0,1.58,0.87,2.44,2.45,2.45c0.58,0,0.58,0,0.58,0.6c0,2.22,0,4.44,0,6.66
					c0,1.19,0.58,1.77,1.77,1.77c8.01,0,16.03,0,24.04,0c1.17,0,1.76-0.58,1.76-1.75c0-2.26,0-4.51,0-6.77c0-0.51,0-0.51,0.52-0.52
					c0.27,0,0.54,0.01,0.81-0.06c1-0.25,1.69-1.04,1.69-2.07C294.32,269.7,294.32,266,294.3,262.3z M265.85,248.16
					c5.34,0,10.67,0,16.01,0c0.55,0,0.55,0.01,0.55,0.56c0,2.24,0,4.49,0,6.73c0,0.81,0.25,1.06,1.06,1.06c1.91,0,3.82,0,5.73,0
					c0.46,0,0.48,0.02,0.48,0.48c0,0.89,0,1.77,0,2.66c0,0.48-0.02,0.5-0.5,0.5c-3.89,0-7.79,0-11.68,0c-3.88,0-7.76,0-11.65,0
					c-0.55,0-0.55,0-0.55-0.56c0-3.62,0-7.25,0-10.87C265.3,248.17,265.3,248.16,265.85,248.16z M289.13,282.58
					c-3.88,0-7.77,0-11.65,0c-3.87,0-7.74,0-11.61,0c-0.57,0-0.57,0-0.57-0.58c0-2,0-3.99,0-5.99c0-0.46,0.02-0.49,0.48-0.49
					c7.8,0,15.61,0,23.41,0c0.48,0,0.5,0.02,0.5,0.5c0,2,0,3.99,0,5.99C289.69,282.57,289.68,282.58,289.13,282.58z"/>
			</g>
			<g>
				<path class="st1" d="M269.97,265.18v1.83h3.17v1.41h-3.17v1.83h3.52v1.41h-5.01v-7.9h5.01v1.41H269.97z"/>
				<path class="st1" d="M274.85,271.67v-7.9h2.78c0.38,0,0.73,0.06,1.05,0.18c0.33,0.12,0.61,0.29,0.85,0.51
					c0.24,0.22,0.43,0.48,0.57,0.79c0.14,0.31,0.21,0.64,0.21,1.01c0,0.37-0.07,0.72-0.21,1.02c-0.14,0.31-0.33,0.57-0.57,0.79
					c-0.24,0.22-0.53,0.39-0.85,0.51c-0.33,0.12-0.68,0.18-1.05,0.18h-1.29v2.9H274.85z M277.65,267.36c0.39,0,0.68-0.11,0.88-0.33
					c0.2-0.22,0.3-0.47,0.3-0.76c0-0.14-0.02-0.28-0.07-0.41c-0.05-0.13-0.12-0.25-0.22-0.35c-0.1-0.1-0.22-0.18-0.37-0.24
					c-0.15-0.06-0.32-0.09-0.52-0.09h-1.31v2.17H277.65z"/>
				<path class="st1" d="M283.8,271.84c-0.34,0-0.66-0.05-0.97-0.14c-0.31-0.1-0.59-0.24-0.85-0.43c-0.26-0.19-0.48-0.42-0.67-0.7
					c-0.19-0.28-0.34-0.6-0.45-0.97l1.4-0.55c0.1,0.4,0.28,0.73,0.54,0.99c0.26,0.26,0.6,0.39,1.01,0.39c0.15,0,0.3-0.02,0.45-0.06
					c0.14-0.04,0.27-0.1,0.39-0.18c0.11-0.08,0.2-0.17,0.27-0.29c0.07-0.12,0.1-0.25,0.1-0.41c0-0.15-0.03-0.28-0.08-0.4
					c-0.05-0.12-0.14-0.23-0.26-0.33c-0.12-0.1-0.28-0.2-0.47-0.3c-0.19-0.1-0.44-0.19-0.72-0.3l-0.49-0.18
					c-0.21-0.07-0.43-0.17-0.65-0.3c-0.22-0.12-0.41-0.28-0.59-0.45c-0.18-0.18-0.32-0.38-0.44-0.62c-0.11-0.24-0.17-0.51-0.17-0.81
					c0-0.31,0.06-0.6,0.18-0.87c0.12-0.27,0.29-0.5,0.52-0.71c0.22-0.2,0.49-0.36,0.81-0.47c0.31-0.11,0.66-0.17,1.04-0.17
					c0.4,0,0.74,0.05,1.03,0.16c0.29,0.11,0.54,0.24,0.74,0.41c0.2,0.17,0.37,0.35,0.49,0.55c0.12,0.2,0.22,0.39,0.28,0.56
					l-1.31,0.55c-0.07-0.22-0.21-0.42-0.4-0.6c-0.19-0.18-0.46-0.26-0.8-0.26c-0.32,0-0.59,0.08-0.81,0.23
					c-0.21,0.15-0.32,0.35-0.32,0.59c0,0.24,0.1,0.44,0.31,0.6c0.21,0.17,0.53,0.33,0.98,0.48l0.5,0.17
					c0.32,0.11,0.6,0.24,0.87,0.38c0.26,0.14,0.49,0.31,0.67,0.51c0.19,0.2,0.33,0.42,0.43,0.68c0.1,0.25,0.15,0.55,0.15,0.88
					c0,0.41-0.08,0.77-0.25,1.06c-0.17,0.3-0.38,0.54-0.63,0.73c-0.26,0.19-0.55,0.33-0.87,0.43
					C284.42,271.8,284.11,271.84,283.8,271.84z"/>
			</g>
			<g>
				<path class="st1" d="M318.39,270.17l4-4.99h-3.83v-1.41h5.56v1.5l-3.96,4.99h4v1.41h-5.78V270.17z"/>
				<path class="st1" d="M325.41,263.77h1.49v7.9h-1.49V263.77z"/>
				<path class="st1" d="M328.49,271.67v-7.9h2.78c0.38,0,0.73,0.06,1.05,0.18c0.33,0.12,0.61,0.29,0.85,0.51s0.43,0.48,0.57,0.79
					c0.14,0.31,0.21,0.64,0.21,1.01c0,0.37-0.07,0.72-0.21,1.02c-0.14,0.31-0.33,0.57-0.57,0.79c-0.24,0.22-0.53,0.39-0.85,0.51
					c-0.33,0.12-0.68,0.18-1.05,0.18h-1.29v2.9H328.49z M331.29,267.36c0.39,0,0.68-0.11,0.88-0.33c0.2-0.22,0.3-0.47,0.3-0.76
					c0-0.14-0.02-0.28-0.07-0.41c-0.05-0.13-0.12-0.25-0.22-0.35c-0.1-0.1-0.22-0.18-0.37-0.24c-0.15-0.06-0.32-0.09-0.52-0.09
					h-1.31v2.17H331.29z"/>
			</g>
		</g>
		<g class="st0">
			<path class="st1" d="M297.13,264.27h9.07v2.24h-9.07V264.27z M297.13,268.14h9.07v2.24h-9.07V268.14z"/>
		</g>
	</g>
	<g class="st0">
		<path class="st1" d="M153.76,309.88h1.61c1.26,0,2.11,0.81,2.11,1.97c0,1.16-0.85,1.97-2.11,1.97h-1.61V309.88z M155.34,313.46
			c1.05,0,1.73-0.67,1.73-1.61c0-0.95-0.68-1.61-1.73-1.61h-1.17v3.23H155.34z"/>
		<path class="st1" d="M162.14,311.85c0-1.15,0.88-2.01,2.07-2.01c1.18,0,2.07,0.85,2.07,2.01c0,1.16-0.89,2.01-2.07,2.01
			C163.02,313.86,162.14,313,162.14,311.85z M165.87,311.85c0-0.94-0.7-1.64-1.65-1.64c-0.95,0-1.66,0.69-1.66,1.64
			c0,0.94,0.71,1.63,1.66,1.63C165.16,313.49,165.87,312.79,165.87,311.85z"/>
		<path class="st1" d="M176.6,309.88l-1.33,3.95h-0.44l-1.16-3.37l-1.16,3.37h-0.43l-1.33-3.95h0.43l1.14,3.39l1.18-3.39h0.39
			l1.16,3.41l1.16-3.41H176.6z"/>
		<path class="st1" d="M184.73,309.88v3.95h-0.34l-2.54-3.2v3.2h-0.42v-3.95h0.34l2.54,3.2v-3.2H184.73z"/>
		<path class="st1" d="M190.09,309.88h0.42v3.59h2.21v0.36h-2.63V309.88z"/>
		<path class="st1" d="M197.06,311.85c0-1.15,0.88-2.01,2.07-2.01c1.18,0,2.07,0.85,2.07,2.01c0,1.16-0.89,2.01-2.07,2.01
			C197.94,313.86,197.06,313,197.06,311.85z M200.79,311.85c0-0.94-0.7-1.64-1.65-1.64c-0.95,0-1.66,0.69-1.66,1.64
			c0,0.94,0.71,1.63,1.66,1.63C200.08,313.49,200.79,312.79,200.79,311.85z"/>
		<path class="st1" d="M208.64,312.77h-2.2l-0.47,1.05h-0.43l1.8-3.95h0.41l1.8,3.95h-0.44L208.64,312.77z M208.48,312.43
			l-0.95-2.12l-0.95,2.12H208.48z"/>
		<path class="st1" d="M214.28,309.88h1.61c1.26,0,2.11,0.81,2.11,1.97c0,1.16-0.85,1.97-2.11,1.97h-1.61V309.88z M215.86,313.46
			c1.05,0,1.73-0.67,1.73-1.61c0-0.95-0.68-1.61-1.73-1.61h-1.17v3.23H215.86z"/>
		<path class="st1" d="M231.04,312.77h-2.2l-0.47,1.05h-0.43l1.8-3.95h0.41l1.8,3.95h-0.44L231.04,312.77z M230.89,312.43
			l-0.95-2.12l-0.95,2.12H230.89z"/>
		<path class="st1" d="M236.68,309.88h0.42v3.59h2.21v0.36h-2.63V309.88z"/>
		<path class="st1" d="M244.08,309.88h0.42v3.59h2.21v0.36h-2.63V309.88z"/>
		<path class="st1" d="M257.45,310.24v1.55h2.04v0.36h-2.04v1.67h-0.42v-3.95h2.71v0.36H257.45z"/>
		<path class="st1" d="M264.68,309.88h0.42v3.95h-0.42V309.88z"/>
		<path class="st1" d="M270.46,309.88h0.42v3.59h2.21v0.36h-2.63V309.88z"/>
		<path class="st1" d="M280.64,313.46v0.36h-2.79v-3.95h2.71v0.36h-2.29v1.4h2.04V312h-2.04v1.47H280.64z"/>
		<path class="st1" d="M291.67,310.24v1.55h2.04v0.36h-2.04v1.67h-0.42v-3.95h2.71v0.36H291.67z"/>
		<path class="st1" d="M298.5,311.85c0-1.15,0.88-2.01,2.07-2.01c1.18,0,2.07,0.85,2.07,2.01c0,1.16-0.89,2.01-2.07,2.01
			C299.38,313.86,298.5,313,298.5,311.85z M302.23,311.85c0-0.94-0.7-1.64-1.65-1.64c-0.95,0-1.66,0.69-1.66,1.64
			c0,0.94,0.71,1.63,1.66,1.63C301.52,313.49,302.23,312.79,302.23,311.85z"/>
		<path class="st1" d="M310.35,313.82l-0.9-1.27c-0.1,0.01-0.2,0.02-0.32,0.02h-1.06v1.25h-0.42v-3.95h1.48c1,0,1.61,0.51,1.61,1.35
			c0,0.62-0.33,1.05-0.9,1.24l0.96,1.35H310.35z M310.33,311.23c0-0.63-0.42-0.99-1.21-0.99h-1.05v1.98h1.05
			C309.91,312.22,310.33,311.85,310.33,311.23z"/>
		<path class="st1" d="M319.91,309.88v3.95h-0.4v-3.16l-1.55,2.66h-0.2l-1.55-2.64v3.14h-0.4v-3.95h0.34l1.71,2.93l1.7-2.93H319.91z
			"/>
		<path class="st1" d="M327.74,312.77h-2.2l-0.47,1.05h-0.43l1.8-3.95h0.41l1.8,3.95h-0.44L327.74,312.77z M327.59,312.43
			l-0.95-2.12l-0.95,2.12H327.59z"/>
		<path class="st1" d="M333.96,310.24h-1.39v-0.36h3.19v0.36h-1.39v3.59h-0.42V310.24z"/>
		<path class="st1" d="M340.06,313.35l0.16-0.32c0.28,0.28,0.78,0.48,1.3,0.48c0.74,0,1.06-0.31,1.06-0.7
			c0-1.08-2.43-0.42-2.43-1.88c0-0.58,0.45-1.08,1.45-1.08c0.45,0,0.91,0.13,1.22,0.35l-0.14,0.33c-0.34-0.22-0.73-0.33-1.08-0.33
			c-0.72,0-1.04,0.32-1.04,0.72c0,1.08,2.43,0.43,2.43,1.87c0,0.58-0.46,1.08-1.47,1.08C340.94,313.86,340.36,313.65,340.06,313.35z
			"/>
	</g>
</g>
<g>
</g>
<g>
	<g>
		<path class="st2" d="M115.32,94.52c-3.81,0-7.09-0.1-9.86-0.29c-2.77-0.2-5.12-0.57-7.06-1.11c-1.94-0.55-3.52-1.29-4.75-2.23
			c-1.22-0.94-2.18-2.15-2.85-3.63c-0.68-1.48-1.14-3.26-1.38-5.33c-0.24-2.07-0.37-4.53-0.37-7.38v-0.88
			c0-2.85,0.12-5.33,0.37-7.44c0.25-2.11,0.72-3.9,1.41-5.39c0.7-1.48,1.66-2.68,2.88-3.6c1.22-0.92,2.81-1.63,4.75-2.14
			c1.94-0.51,4.29-0.86,7.06-1.05c2.77-0.2,6.04-0.29,9.81-0.29h1.81c4.86,0,8.82,0.2,11.87,0.59c3.05,0.39,5.44,1.06,7.18,2.02
			c1.73,0.96,2.92,2.25,3.56,3.89c0.64,1.64,0.96,3.69,0.96,6.15v1.52H127.3v-0.64c0-0.62-0.12-1.16-0.37-1.61
			c-0.24-0.45-0.73-0.81-1.47-1.08c-0.73-0.27-1.81-0.47-3.22-0.59c-1.41-0.12-3.27-0.18-5.57-0.18h-1.02
			c-3.05,0-5.46,0.1-7.23,0.29c-1.77,0.2-3.09,0.62-3.96,1.29c-0.87,0.66-1.41,1.66-1.64,2.99c-0.23,1.33-0.34,3.12-0.34,5.39v0.47
			c0,2.26,0.1,4.06,0.31,5.39c0.21,1.33,0.75,2.34,1.64,3.05c0.89,0.7,2.2,1.16,3.96,1.38c1.75,0.21,4.17,0.32,7.26,0.32h1.02
			c2.71,0,4.85-0.08,6.41-0.23s2.74-0.41,3.53-0.76c0.79-0.35,1.29-0.82,1.5-1.41c0.21-0.59,0.31-1.31,0.31-2.17v-0.47h-13.85v-7.85
			h26.56v8.43c0,2.89-0.35,5.28-1.05,7.17c-0.7,1.89-1.95,3.39-3.76,4.48c-1.81,1.09-4.27,1.85-7.38,2.28s-7.05,0.64-11.84,0.64
			H115.32L115.32,94.52z M187.56,94.06h-39.73V54.23h13.56V83.4h26.17V94.06L187.56,94.06z M236.68,94.06h-44.82V54.23h44.08v9.6
			H205.2v5.62h29.16v9.02H205.2v5.91h31.48V94.06L236.68,94.06z M306.83,94.06h-13.06V67.23h-0.17l-14.02,26.82H269.3l-13.73-26.82
			h-0.28v26.82h-13.05V54.23h18.59L274.67,81h0.17l13.73-26.76h18.25V94.06L306.83,94.06z"/>
		<path class="st2" d="M341.93,74.25h26.63c0.12,1.01,0.19,2.43,0.19,4.26c0,7.04-1.37,11.39-4.12,13.06
			c-2.75,1.67-9.91,2.5-21.52,2.5c-10.95,0-17.99-0.99-21.11-2.96c-3.12-1.97-4.69-6.4-4.69-13.28l-0.05-5.75l0.05-3.46
			c0-5.78,1.74-9.62,5.2-11.53c3.48-1.9,10.49-2.86,21-2.86c10.56,0,17.38,0.62,20.45,1.87c3.06,1.25,4.6,4.03,4.6,8.36v1.48h-6.88
			v-0.98c0-3.18-1.03-5.14-3.11-5.9c-2.08-0.75-7.5-1.13-16.28-1.13c-8.09,0-13.16,0.61-15.19,1.82c-2.04,1.21-3.05,4.24-3.05,9.08
			l-0.09,5.17l0.05,5.57c0,4.92,1.13,7.95,3.39,9.07c2.27,1.12,8.3,1.69,18.1,1.69c7.49,0,12.12-0.54,13.9-1.6
			c1.77-1.06,2.66-3.86,2.66-8.37c0-0.36-0.12-1.16-0.37-2.4h-19.75V74.25L341.93,74.25z M413.7,85.39h-31.46l-4.77,8.27h-7.43
			l22.76-39.03h9.83l23.21,39.03h-7.33L413.7,85.39L413.7,85.39z M411.65,82.07l-13.8-23.84l-13.61,23.84H411.65L411.65,82.07z
			 M472.87,65.21h-6.96c0-3.14-0.84-5.14-2.5-5.99c-1.68-0.85-5.61-1.27-11.79-1.27c-7.35,0-12.07,0.41-14.2,1.22
			c-2.13,0.81-3.19,2.62-3.19,5.42c0,3.14,0.84,5.06,2.5,5.74c1.68,0.69,6.63,1.16,14.88,1.41c9.68,0.26,15.83,1.03,18.46,2.31
			c2.63,1.28,3.93,4.14,3.93,8.58c0,4.8-1.51,7.92-4.52,9.32c-3.03,1.42-9.69,2.12-20.01,2.12c-8.95,0-14.9-0.71-17.87-2.13
			c-2.95-1.43-4.43-4.28-4.43-8.59l-0.05-1.75h6.96v0.98c0,3.48,0.85,5.65,2.55,6.5c1.69,0.85,6.06,1.27,13.07,1.27
			c8.03,0,12.97-0.42,14.82-1.27c1.85-0.85,2.78-3.11,2.78-6.79c0-2.38-0.64-3.97-1.9-4.76c-1.26-0.79-3.88-1.26-7.89-1.42
			l-7.27-0.22l-6.91-0.23c-10.53-0.45-15.8-3.88-15.8-10.29c0-4.44,1.54-7.41,4.6-8.89c3.06-1.49,9.18-2.24,18.35-2.24
			c9.27,0,15.33,0.69,18.16,2.07C471.45,57.68,472.87,60.65,472.87,65.21L472.87,65.21z"/>
		<path class="st3" d="M36.7,93.8l-9.14-31.7C25.58,62.03,24,60.43,24,58.46c0-2.01,1.66-3.64,3.7-3.64c2.04,0,3.7,1.63,3.7,3.64
			c0,1.42-0.83,2.66-2.05,3.25l9.17,15.45l0.34-20.46c-1.65-0.36-2.88-1.81-2.88-3.55c0-2.01,1.65-3.64,3.7-3.64s3.7,1.63,3.7,3.64
			c0,1.62-1.08,2.99-2.57,3.46l5.72,17.88l5.22-20.08c-1.27-0.57-2.15-1.84-2.15-3.31c0-2.01,1.66-3.64,3.7-3.64s3.7,1.63,3.7,3.64
			c0,1.84-1.4,3.37-3.21,3.6l5.35,19.9l6.17-18.01c-1.29-0.57-2.18-1.84-2.18-3.32c0-2.01,1.66-3.64,3.7-3.64s3.7,1.63,3.7,3.64
			c0,1.95-1.57,3.55-3.54,3.63l0.89,20.24l8.87-15.35c-1.08-0.64-1.8-1.79-1.8-3.12c0-2.01,1.65-3.64,3.7-3.64
			c2.04,0,3.7,1.63,3.7,3.64c0,2.01-1.66,3.64-3.7,3.64c-0.08,0-0.16,0-0.23-0.01L69.43,93.8H36.7L36.7,93.8z"/>
	</g>
	<text transform="matrix(1.1269 0 0 1 90.7642 130.0293)" class="st4 st5">Service Center</text>
</g>
</svg>
